<?xml version="1.0" encoding="utf-8"?>
<!-- Generator: Adobe Illustrator 22.1.0, SVG Export Plug-In . SVG Version: 6.00 Build 0)  -->
<svg version="1.1" id="Ebene_1" xmlns="http://www.w3.org/2000/svg" xmlns:xlink="http://www.w3.org/1999/xlink" x="0px" y="0px"
	 viewBox="0 0 3277.2 1701.6" style="enable-background:new 0 0 3277.2 1701.6;" xml:space="preserve">
<style type="text/css">
	.st0{fill:none;stroke:#FF0000;stroke-width:1.000000e-03;stroke-linecap:round;stroke-miterlimit:10;}
	.st1{fill:none;stroke:#000000;stroke-width:1.000000e-03;stroke-linecap:round;stroke-miterlimit:10;}
	.st2{fill:none;stroke:#0000FF;stroke-width:1.000000e-03;stroke-linecap:round;stroke-miterlimit:10;}
</style>
<g transform="">
	<g>
		<g id="shape">
			<path id="joint_33_" class="st0" d="M2004.5,1605.7"/>
			<path id="joint_8_" class="st0" d="M2415.5,1605.7"/>
			<path id="joint_25_" class="st0" d="M2415.5,840.4"/>
			<path id="joint_24_" class="st0" d="M2415.5,1605.7"/>
			<path id="joint_27_" class="st0" d="M2415.5,840.4"/>
			<path id="joint_15_" class="st0" d="M2004.5,840.4"/>
			<path id="joint_31_" class="st0" d="M2004.5,840.4"/>
			<path id="joint_11_" class="st0" d="M2004.5,1605.7"/>
			<path id="joint_38_" class="st0" d="M2531.7,1605.7"/>
			<path id="joint_7_" class="st0" d="M2920,1605.7"/>
			<path id="joint_41_" class="st0" d="M2920,840.4"/>
			<path id="joint_6_" class="st0" d="M2920,1605.7"/>
			<path id="joint_40_" class="st0" d="M2920,840.4"/>
			<path id="joint_14_" class="st0" d="M2531.7,840.4"/>
			<path id="joint_37_" class="st0" d="M2531.7,840.4"/>
			<path id="joint_13_" class="st0" d="M2531.7,1605.7"/>
			<path id="joint_32_" class="st0" d="M1911.2,1605.7"/>
			<path id="joint_3_" class="st0" d="M1996.3,1605.7"/>
			<path id="joint_29_" class="st0" d="M1996.3,840.4"/>
			<path id="joint_10_" class="st0" d="M1996.3,1605.7"/>
			<path id="joint_28_" class="st0" d="M1996.3,840.4"/>
			<path id="joint_2_" class="st0" d="M1911.2,840.4"/>
			<path id="joint_30_" class="st0" d="M1911.2,840.4"/>
			<path id="joint_9_" class="st0" d="M1911.2,1605.7"/>
			<path id="joint_35_" class="st0" d="M2517.7,1605.7"/>
			<path id="joint_34_" class="st0" d="M2429.6,1605.7"/>
			<path id="joint_36_" class="st0" d="M2517.7,840.4"/>
			<path id="joint_12_" class="st0" d="M2517.7,1605.7"/>
			<path id="joint_39_" class="st0" d="M2517.7,840.4"/>
			<path id="joint_4_" class="st0" d="M2429.6,840.4"/>
			<path id="joint_26_" class="st0" d="M2429.6,840.4"/>
			<path id="joint_1_" class="st0" d="M2429.6,1605.7"/>
			<path id="_x36_8b8edfe-b48a-4e7c-b401-acd18b5713b9" class="st1" d="M3019.1,1659.3"/>
			<path id="joint_47_" class="st0" d="M3019.1,1271.1"/>
			<path id="joint_23_" class="st0" d="M3019.1,1659.3"/>
			<path id="joint_45_" class="st0" d="M3019.1,1271.1"/>
			<path id="joint_21_" class="st0" d="M2934,1248"/>
			<path id="joint_48_" class="st0" d="M2934,1659.2"/>
			<path id="joint_16_" class="st0" d="M2934,1248.2"/>
			<path id="_x32_60c581a-fa66-4522-ae34-9730604364f6" class="st1" d="M2934,1659.3"/>
			<path id="joint_49_" class="st0" d="M3019.1,1659.3"/>
			<path id="joint_18_" class="st0" d="M2934,1659.3"/>
			<path id="cfe3ba1e-8a49-4a31-a656-051fbb2500ce" class="st1" d="M3019.1,1241.3"/>
			<path id="joint_43_" class="st0" d="M3019.1,830.1"/>
			<path id="joint_22_" class="st0" d="M3019.1,1241.2"/>
			<path id="joint_44_" class="st0" d="M2934,853.1"/>
			<path id="joint_20_" class="st0" d="M3019.1,830"/>
			<path id="joint_42_" class="st0" d="M2934,1241.3"/>
			<path id="joint_5_" class="st0" d="M2934,853.1"/>
			<path id="_x34_8f39b31-c52a-4dd2-8701-ab7541470b22" class="st1" d="M2934,1241.3"/>
			<path id="joint_46_" class="st0" d="M3019.1,1241.3"/>
			<path id="joint_17_" class="st0" d="M2934,1241.3"/>
			<path class="st1" d="M2109.6,1435.7"/>
			<path class="st1" d="M2350.5,1435.7h-240.9"/>
			<path class="st1" d="M2350.5,1435.7"/>
			<path class="st1" d="M2350.5,1010.5v425.2"/>
			<path class="st1" d="M2350.5,1010.5"/>
			<path class="st1" d="M2109.6,1010.5h240.9"/>
			<path class="st1" d="M2109.6,1010.5"/>
			<path class="st1" d="M2109.6,1435.7v-425.2"/>
			<g id="_x39__x5F_joint">
				<path class="st2" d="M1996.3,1605.7L1996.3,1605.7v-0.1h-8.2v-29.2h8.2v-0.1l0,0v-29.4l0,0v-0.1h-8.2v-29.2h8.2v-0.1l0,0V1488
					l0,0v-0.1h-8.2v-29.2h8.2v-0.1l0,0v-29.4l0,0v-0.1h-8.2v-29.2h8.2v-0.1l0,0v-29.4l0,0v-0.1h-8.2V1341h8.2v-0.1l0,0v-29.4l0,0
					v-0.1h-8.2v-29.2h8.2v-0.1l0,0v-29.4l0,0v-0.1h-8.2v-29.2h8.2v-0.1l0,0v-29.4l0,0v-0.1h-8.2v-29.2h8.2v-0.1l0,0v-29.4l0,0v-0.1
					h-8.2v-29.2h8.2v-0.1l0,0v-29.4l0,0v-0.1h-8.2v-29.2h8.2v-0.1l0,0V1017l0,0v-0.1h-8.2v-29.2h8.2v-0.1l0,0v-29.4l0,0V958h-8.2
					v-29.2h8.2v-0.1l0,0v-29.4l0,0v-0.1h-8.2V870h8.2v-0.1l0,0v-29.4l0,0"/>
			</g>
			<g id="_x33__x5F_joint">
				<path class="st2" d="M2004.5,1605.7L2004.5,1605.7v-29.4l0,0v-0.1h8.2V1547h-8.2v-0.1l0,0v-29.4l0,0v-0.1h8.2v-29.2h-8.2v-0.1
					l0,0v-29.4l0,0v-0.1h8.2v-29.2h-8.2v-0.1l0,0v-29.4l0,0v-0.1h8.2v-29.2h-8.2v-0.1l0,0v-29.4l0,0v-0.1h8.2v-29.2h-8.2v-0.1l0,0
					v-29.4l0,0v-0.1h8.2v-29.2h-8.2v-0.1l0,0v-29.4l0,0v-0.1h8.2v-29.2h-8.2v-0.1l0,0v-29.4l0,0v-0.1h8.2v-29.2h-8.2v-0.1l0,0v-29.4
					l0,0v-0.1h8.2V1076h-8.2v-0.1l0,0v-29.4l0,0v-0.1h8.2v-29.2h-8.2v-0.1l0,0v-29.4l0,0v-0.1h8.2v-29.2h-8.2v-0.1l0,0v-29.4l0,0
					v-0.1h8.2v-29.2h-8.2v-0.1l0,0v-29.4l0,0v-0.1h8.2v-29.2h-8.2v-0.1l0,0"/>
			</g>
			<g id="_x31__x5F_joint">
				<path class="st2" d="M2415.5,1605.7L2415.5,1605.7v-0.1h-8.5v-29.2h8.5l0,0v-29.7l0,0h-8.5v-29.2h8.5l0,0v-29.7l0,0h-8.5v-29.2
					h8.5l0,0V1429l0,0h-8.5v-29.2h8.5l0,0v-29.7l0,0h-8.5V1341h8.5l0,0v-29.7l0,0h-8.5v-29.2h8.5l0,0v-29.7l0,0h-8.5v-29.2h8.5l0,0
					v-29.7l0,0h-8.5v-29.2h8.5l0,0v-29.7l0,0h-8.5v-29.2h8.5l0,0v-29.7l0,0h-8.5v-29.2h8.5l0,0v-29.7l0,0h-8.5v-29.2h8.5l0,0V958
					l0,0h-8.5v-29.2h8.5l0,0v-29.7l0,0h-8.5V870h8.5l0,0v-29.7v0.1l0,0"/>
			</g>
			<g id="_x31_5_x5F_joint">
				<path class="st2" d="M2429.6,1605.7L2429.6,1605.7v0.1v-29.7l0,0h8.5V1547h-8.5l0,0v-29.7l0,0h8.5v-29.2h-8.5l0,0v-29.7l0,0h8.5
					v-29.2h-8.5l0,0v-29.7l0,0h8.5v-29.2h-8.5l0,0v-29.7l0,0h8.5v-29.2h-8.5l0,0v-29.7l0,0h8.5v-29.2h-8.5l0,0v-29.7l0,0h8.5v-29.2
					h-8.5l0,0v-29.7l0,0h8.5v-29.2h-8.5l0,0v-29.7l0,0h8.5V1076h-8.5l0,0v-29.7l0,0h8.5v-29.2h-8.5l0,0v-29.7l0,0h8.5v-29.2h-8.5
					l0,0v-29.7l0,0h8.5v-29.2h-8.5l0,0v-29.7l0,0h8.5v-29.2h-8.5v-0.1l0,0"/>
			</g>
			<g id="_x31_3_x5F_joint">
				<path class="st2" d="M2517.7,1605.7L2517.7,1605.7v-0.1h-6.3v-29.2h6.3h1.6v-29.7h-1.6h-6.3v-29.2h6.3h1.6v-29.7h-1.6h-6.3
					v-29.2h6.3h1.6V1429h-1.6h-6.3v-29.2h6.3h1.6v-29.7h-1.6h-6.3V1341h6.3h1.6v-29.7h-1.6h-6.3v-29.2h6.3h1.6v-29.7h-1.6h-6.3
					v-29.2h6.3h1.6v-29.7h-1.6h-6.3v-29.2h6.3h1.6v-29.7h-1.6h-6.3v-29.2h6.3h1.6v-29.7h-1.6h-6.3v-29.2h6.3h1.6v-29.7h-1.6h-6.3
					v-29.2h6.3h1.6V958h-1.6h-6.3v-29.2h6.3h1.6v-29.7h-1.6h-6.3V870h6.3h1.6v-29.7l-1.6,0.1l0,0"/>
			</g>
			<g id="_x37__x5F_joint">
				<path class="st2" d="M2531.7,1605.7L2531.7,1605.7l-1.6,0.1v-29.7h1.6h6.3V1547h-6.3h-1.6v-29.7h1.6h6.3v-29.2h-6.3h-1.6v-29.7
					h1.6h6.3v-29.2h-6.3h-1.6v-29.7h1.6h6.3v-29.2h-6.3h-1.6v-29.7h1.6h6.3v-29.2h-6.3h-1.6v-29.7h1.6h6.3v-29.2h-6.3h-1.6v-29.7
					h1.6h6.3v-29.2h-6.3h-1.6v-29.7h1.6h6.3v-29.2h-6.3h-1.6v-29.7h1.6h6.3V1076h-6.3h-1.6v-29.7h1.6h6.3v-29.2h-6.3h-1.6v-29.7h1.6
					h6.3v-29.2h-6.3h-1.6v-29.7h1.6h6.3v-29.2h-6.3h-1.6v-29.7h1.6h6.3v-29.2h-6.3v-0.1l0,0"/>
			</g>
			<g id="_x35__x5F_joint">
				<path class="st2" d="M2920,1605.7L2920,1605.7v-0.1h-8.2v-29.2h8.2v-0.1l0,0v-29.4l0,0v-0.1h-8.2v-29.2h8.2v-0.1l0,0V1488l0,0
					v-0.1h-8.2v-29.2h8.2v-0.1l0,0v-29.4l0,0v-0.1h-8.2v-29.2h8.2v-0.1l0,0v-29.4l0,0v-0.1h-8.2V1341h8.2v-0.1l0,0v-29.4l0,0v-0.1
					h-8.2v-29.2h8.2v-0.1l0,0v-29.4l0,0v-0.1h-8.2v-29.2h8.2v-0.1l0,0v-29.4l0,0v-0.1h-8.2v-29.2h8.2v-0.1l0,0v-29.4l0,0v-0.1h-8.2
					v-29.2h8.2v-0.1l0,0v-29.4l0,0v-0.1h-8.2v-29.2h8.2v-0.1l0,0V1017l0,0v-0.1h-8.2v-29.2h8.2v-0.1l0,0v-29.4l0,0V958h-8.2v-29.2
					h8.2v-0.1l0,0v-29.4l0,0v-0.1h-8.2V870h8.2v-0.1l0,0v-29.4l0,0"/>
			</g>
			<g id="_x31_1_x5F_joint">
				<path class="st2" d="M1911.2,1605.7L1911.2,1605.7v-29.4l0,0v-0.1h8.2V1547h-8.2v-0.1l0,0v-29.4l0,0v-0.1h8.2v-29.2h-8.2v-0.1
					l0,0v-29.4l0,0v-0.1h8.2v-29.2h-8.2v-0.1l0,0v-29.4l0,0v-0.1h8.2v-29.2h-8.2v-0.1l0,0v-29.4l0,0v-0.1h8.2v-29.2h-8.2v-0.1l0,0
					v-29.4l0,0v-0.1h8.2v-29.2h-8.2v-0.1l0,0v-29.4l0,0v-0.1h8.2v-29.2h-8.2v-0.1l0,0v-29.4l0,0v-0.1h8.2v-29.2h-8.2v-0.1l0,0v-29.4
					l0,0v-0.1h8.2V1076h-8.2v-0.1l0,0v-29.4l0,0v-0.1h8.2v-29.2h-8.2v-0.1l0,0v-29.4l0,0v-0.1h8.2v-29.2h-8.2v-0.1l0,0v-29.4l0,0
					v-0.1h8.2v-29.2h-8.2v-0.1l0,0v-29.4l0,0v-0.1h8.2v-29.2h-8.2v-0.1l0,0"/>
			</g>
			<g id="_x31_9_x5F_joint">
				<path class="st2" d="M2934,1248.2L2934,1248.2v0.1h8.2v29.1h-8.2v0.1l0,0v29.4l0,0v0.1h8.2v29.1h-8.2v0.1l0,0v29.4l0,0v0.1h8.2
					v29.1h-8.2v0.1l0,0v29.4l0,0v0.1h8.2v29.1h-8.2v0.1l0,0v29.4l0,0v0.1h8.2v29.1h-8.2v0.1l0,0v29.4l0,0v0.1h8.2v29.1h-8.2v0.1l0,0
					v29.4l0,0v0.1h8.2v29.1h-8.2v0.1l0,0v29.4l0,0"/>
			</g>
			<g id="_x30__x5F_joint">
				<path class="st2" d="M2415.5,1605.7L2415.5,1605.7h-29.4l0,0h-0.1v-8.2H2357v8.2h-0.1l0,0h-29.4l0,0h-0.1v-8.2h-29.1v8.2h-0.1
					l0,0h-29.4l0,0h-0.1v-8.2h-29.1v8.2h-0.1l0,0H2210l0,0h-0.1v-8.2h-29.1v8.2h-0.1l0,0h-29.4l0,0h-0.1v-8.2h-29.1v8.2h-0.1l0,0
					h-29.4l0,0h-0.1v-8.2h-29.1v8.2h-0.1l0,0h-29.4l0,0h-0.1v-8.2h-29.1v8.2h-0.1h0"/>
			</g>
			<g id="_x31_2_x5F_joint">
				<path class="st2" d="M2429.6,1605.7L2429.6,1605.7h0.1v-8.2h43.8v8.2h0.1l0,0h44.1l0,0"/>
			</g>
			<g id="_x31_8_x5F_joint">
				<path class="st2" d="M2934,1248L2934,1248l42.5,11.5l0,0l0.1,0l-2.2,7.9l42.2,11.5l2.2-7.9l0.1,0l0,0"/>
			</g>
			<g id="_x31_7_x5F_joint">
				<path class="st2" d="M3019.1,1659.3L3019.1,1659.3v-0.1h-8.2v-32.1h8.2v-0.1l0,0v-32.4l0,0v-0.1h-8.2v-32.1h8.2v-0.1l0,0v-32.4
					l0,0v-0.1h-8.2v-32.1h8.2v-0.1l0,0v-32.4l0,0v-0.1h-8.2V1433h8.2v-0.1l0,0v-32.4l0,0v-0.1h-8.2v-32.1h8.2v-0.1l0,0v-32.4l0,0
					v-0.1h-8.2v-32.1h8.2v-0.1l0,0v-32.4l0,0"/>
			</g>
			<g id="_x34__x5F_joint">
				<path class="st2" d="M2920,1605.7L2920,1605.7h-32.4l0,0h-0.1v-8.2h-32.1v8.2h-0.1l0,0h-32.4l0,0h-0.1v-8.2h-32.1v8.2h-0.1l0,0
					h-32.4l0,0h-0.1v-8.2H2726v8.2h-0.1l0,0h-32.4l0,0h-0.1v-8.2h-32.1v8.2h-0.1l0,0h-32.4l0,0h-0.1v-8.2h-32.1v8.2h-0.1l0,0h-32.4
					l0,0h-0.1v-8.2h-32.1v8.2h-0.1l0,0"/>
			</g>
			<g id="_x32_1_x5F_joint">
				<path class="st2" d="M2934,1659.3L2934,1659.3h0.1v-8.2h42.2v8.2h0.1l0,0h42.5l0,0"/>
			</g>
			<g id="_x38__x5F_joint">
				<path class="st2" d="M1996.3,1605.7L1996.3,1605.7h-42.5l0,0h-0.1v-8.2h-42.2v8.2h-0.1h0"/>
			</g>
			<g id="_x32_3_x5F_joint">
				<path class="st2" d="M3019.1,1241.2L3019.1,1241.2v-0.1h-8.2v-29.1h8.2v-0.1l0,0v-29.4l0,0v-0.1h-8.2v-29.1h8.2v-0.1l0,0v-29.4
					l0,0v-0.1h-8.2v-29.1h8.2v-0.1l0,0V1065l0,0v-0.1h-8.2v-29.1h8.2v-0.1l0,0v-29.4l0,0v-0.1h-8.2v-29.1h8.2v-0.1l0,0v-29.4l0,0
					v-0.1h-8.2v-29.1h8.2v-0.1l0,0v-29.4l0,0v-0.1h-8.2v-29.1h8.2v-0.1l0,0v-29.4l0,0"/>
			</g>
			<g id="_x32__x5F_joint">
				<path class="st2" d="M2004.5,840.4L2004.5,840.4h29.4l0,0h0.1v8.2h29.1v-8.2h0.1l0,0h29.4l0,0h0.1v8.2h29.1v-8.2h0.1l0,0h29.4
					l0,0h0.1v8.2h29.1v-8.2h0.1l0,0h29.4l0,0h0.1v8.2h29.1v-8.2h0.1l0,0h29.4l0,0h0.1v8.2h29.1v-8.2h0.1l0,0h29.4l0,0h0.1v8.2h29.1
					v-8.2h0.1l0,0h29.4l0,0h0.1v8.2h29.1v-8.2h0.1l0,0"/>
			</g>
			<g id="_x32_4_x5F_joint">
				<path class="st2" d="M3019.1,830L3019.1,830l-0.1,0l2.2,7.9l-42.2,11.5l-2.2-7.9l-0.1,0l0,0l-42.5,11.5l0,0"/>
			</g>
			<g id="_x31_4_x5F_joint">
				<path class="st2" d="M2429.6,840.4L2429.6,840.4h44.1l0,0h0.1v8.2h43.8v-8.2h0.1h0"/>
			</g>
			<g id="_x32_5_x5F_joint">
				<path class="st2" d="M2934,853.1L2934,853.1v0.1h8.2v32.1h-8.2v0.1l0,0v32.4l0,0v0.1h8.2V950h-8.2v0.1l0,0v32.4l0,0v0.1h8.2
					v32.1h-8.2v0.1l0,0v32.4l0,0v0.1h8.2v32.1h-8.2v0.1l0,0v32.4l0,0v0.1h8.2v32.1h-8.2v0.1l0,0v32.4l0,0v0.1h8.2v32.1h-8.2v0.1l0,0
					v32.4l0,0"/>
			</g>
			<g id="_x36__x5F_joint">
				<path class="st2" d="M2531.7,840.4L2531.7,840.4h32.4l0,0h0.1v8.2h32.1v-8.2h0.1l0,0h32.4l0,0h0.1v8.2h32.1v-8.2h0.1l0,0h32.4
					l0,0h0.1v8.2h32.1v-8.2h0.1l0,0h32.4l0,0h0.1v8.2h32.1v-8.2h0.1l0,0h32.4l0,0h0.1v8.2h32.1v-8.2h0.1l0,0h32.4l0,0h0.1v8.2h32.1
					v-8.2h0.1l0,0"/>
			</g>
			<g id="_x32_7_x5F_joint">
				<path class="st2" d="M2934,1241.3L2934,1241.3h0.1v-8.2h42.2v8.2h0.1l0,0h42.5l0,0"/>
			</g>
			<g id="_x31_0_x5F_joint">
				<path class="st2" d="M1911.2,840.4L1911.2,840.4h42.5l0,0h0.1v8.2h42.2v-8.2h0.1h0"/>
			</g>
		</g>
	</g>
</g>
</svg>
