<svg id="861d1ab0-b9f3-4110-a11e-7b7b464983d8" data-name="Screen" xmlns="http://www.w3.org/2000/svg" viewBox="0 0 1107.846 829.346"><defs><style>.\32 b16eb74-b0fa-4841-b73a-289f56428122{fill:none;stroke:#000;stroke-miterlimit:10;stroke-width:0.001px;}</style></defs><title>Screen</title><line class="2b16eb74-b0fa-4841-b73a-289f56428122" x1="504.323" y1="775.761" x2="93.299" y2="775.761"/><line class="2b16eb74-b0fa-4841-b73a-289f56428122" x1="504.323" y1="10.406" x2="504.323" y2="775.761"/><line class="2b16eb74-b0fa-4841-b73a-289f56428122" x1="93.299" y1="10.406" x2="504.323" y2="10.406"/><line class="2b16eb74-b0fa-4841-b73a-289f56428122" x1="93.299" y1="775.761" x2="93.299" y2="10.406"/><line class="2b16eb74-b0fa-4841-b73a-289f56428122" x1="1008.763" y1="775.761" x2="620.53" y2="775.761"/><line class="2b16eb74-b0fa-4841-b73a-289f56428122" x1="1008.763" y1="10.406" x2="1008.763" y2="775.761"/><line class="2b16eb74-b0fa-4841-b73a-289f56428122" x1="620.53" y1="10.406" x2="1008.763" y2="10.406"/><line class="2b16eb74-b0fa-4841-b73a-289f56428122" x1="620.53" y1="775.761" x2="620.53" y2="10.406"/><line class="2b16eb74-b0fa-4841-b73a-289f56428122" x1="85.04" y1="775.761" x2="0.001" y2="775.761"/><line class="2b16eb74-b0fa-4841-b73a-289f56428122" x1="85.04" y1="10.406" x2="85.04" y2="775.761"/><line class="2b16eb74-b0fa-4841-b73a-289f56428122" x1="0.001" y1="10.406" x2="85.04" y2="10.406"/><line class="2b16eb74-b0fa-4841-b73a-289f56428122" x1="0.001" y1="775.761" x2="0.001" y2="10.406"/><line class="2b16eb74-b0fa-4841-b73a-289f56428122" x1="606.487" y1="775.761" x2="518.366" y2="775.761"/><line class="2b16eb74-b0fa-4841-b73a-289f56428122" x1="606.487" y1="10.407" x2="606.487" y2="775.761"/><line class="2b16eb74-b0fa-4841-b73a-289f56428122" x1="518.366" y1="10.407" x2="606.487" y2="10.407"/><line class="2b16eb74-b0fa-4841-b73a-289f56428122" x1="518.366" y1="775.761" x2="518.366" y2="10.407"/><path id="68b8edfe-b48a-4e7c-b401-acd18b5713b9" data-name="Screenbox_left" class="2b16eb74-b0fa-4841-b73a-289f56428122" d="M1123.275,840.021" transform="translate(-15.429 -10.675)"/><line id="364867d7-8682-4226-9047-c41e9a87ee62" data-name="Screenbox_left" class="2b16eb74-b0fa-4841-b73a-289f56428122" x1="1107.846" y1="441.113" x2="1107.846" y2="829.346"/><line id="e79be9a1-172b-4ac7-bd3d-de13b39653f8" data-name="Screenbox_left" class="2b16eb74-b0fa-4841-b73a-289f56428122" x1="1022.806" y1="418.019" x2="1107.846" y2="441.113"/><line id="b85fdafd-06e4-40ce-9175-d49973ef67ba" data-name="Screenbox_left" class="2b16eb74-b0fa-4841-b73a-289f56428122" x1="1022.807" y1="829.194" x2="1022.807" y2="418.171"/><path id="260c581a-fa66-4522-ae34-9730604364f6" data-name="Screenbox_left" class="2b16eb74-b0fa-4841-b73a-289f56428122" d="M1038.235,840.021" transform="translate(-15.429 -10.675)"/><line id="b7b35bf0-b9d6-4bc8-8686-32f922e8835a" data-name="Screenbox_left" class="2b16eb74-b0fa-4841-b73a-289f56428122" x1="1107.846" y1="829.346" x2="1022.806" y2="829.346"/><path id="cfe3ba1e-8a49-4a31-a656-051fbb2500ce" data-name="Screenbox_right" class="2b16eb74-b0fa-4841-b73a-289f56428122" d="M1123.274,422" transform="translate(-15.429 -10.675)"/><line id="a97c7c47-1c62-42af-8c6c-2757cc40aa6d" data-name="Screenbox_right" class="2b16eb74-b0fa-4841-b73a-289f56428122" x1="1107.846" y1="0.152" x2="1107.846" y2="411.176"/><line id="d7bc2b04-341b-490b-98e8-ca1e9ea64549" data-name="Screenbox_right" class="2b16eb74-b0fa-4841-b73a-289f56428122" x1="1022.806" y1="23.094" x2="1107.846"/><line id="8e8d0268-e330-419e-b1c6-a43e053780a4" data-name="Screenbox_right" class="2b16eb74-b0fa-4841-b73a-289f56428122" x1="1022.806" y1="411.327" x2="1022.806" y2="23.094"/><path id="48f39b31-c52a-4dd2-8701-ab7541470b22" data-name="Screenbox_right" class="2b16eb74-b0fa-4841-b73a-289f56428122" d="M1038.235,422" transform="translate(-15.429 -10.675)"/><line id="6a158903-bc62-489f-9bc6-f1adb9f95336" data-name="Screenbox_right" class="2b16eb74-b0fa-4841-b73a-289f56428122" x1="1107.846" y1="411.328" x2="1022.806" y2="411.328"/><path class="2b16eb74-b0fa-4841-b73a-289f56428122" d="M213.767,616.358" transform="translate(-15.429 -10.675)"/><line class="2b16eb74-b0fa-4841-b73a-289f56428122" x1="439.283" y1="605.682" x2="198.339" y2="605.682"/><path class="2b16eb74-b0fa-4841-b73a-289f56428122" d="M454.712,616.358" transform="translate(-15.429 -10.675)"/><line class="2b16eb74-b0fa-4841-b73a-289f56428122" x1="439.283" y1="180.485" x2="439.283" y2="605.682"/><path class="2b16eb74-b0fa-4841-b73a-289f56428122" d="M454.712,191.161" transform="translate(-15.429 -10.675)"/><line class="2b16eb74-b0fa-4841-b73a-289f56428122" x1="198.339" y1="180.485" x2="439.283" y2="180.485"/><path class="2b16eb74-b0fa-4841-b73a-289f56428122" d="M213.767,191.161" transform="translate(-15.429 -10.675)"/><line class="2b16eb74-b0fa-4841-b73a-289f56428122" x1="198.339" y1="605.682" x2="198.339" y2="180.485"/></svg>