<svg version="1.1" xmlns="http://www.w3.org/2000/svg" xmlns:xlink="http://www.w3.org/1999/xlink" width="1335.5646493560575mm" height="918.6667104011758mm" viewBox="0 0 1335.5646493560575 918.6667104011758"><g transform="translate(0,0.58017)"><g fill="none" stroke="none" stroke-width="none" stroke-linecap="none" stroke-linejoin="miter" stroke-miterlimit="10" stroke-dasharray="" stroke-dashoffset="0" font-family="none" font-weight="none" font-size="12" text-anchor="start" mix-blend-mode="normal"><g stroke-opacity="0" stroke="#000000" stroke-width="1" stroke-linecap="butt" font-family="sans-serif" font-weight="normal"></g><g stroke-width="1" stroke-linecap="butt" font-family="sans-serif" font-weight="normal"></g><g stroke-width="1" stroke-linecap="butt" font-family="sans-serif" font-weight="normal"></g><g stroke-width="1" stroke-linecap="butt" font-family="sans-serif" font-weight="normal"></g><g stroke="#00aaff" stroke-width="2" stroke-linecap="butt" font-family="sans-serif" font-weight="normal"></g><g stroke-width="1" stroke-linecap="butt" font-family="sans-serif" font-weight="normal"></g><g id="shape" stroke-linecap="round"><path d="M1146.82819,457.55244l0,-241.99991" id="joint" fill="none" stroke="#ff0000" stroke-width="1" font-family="Roboto, sans-serif" font-weight="400"></path><path d="M1146.82819,215.55253l27.0002,-46.76528" id="joint" fill="none" stroke="#ff0000" stroke-width="1" font-family="Roboto, sans-serif" font-weight="400"></path><path d="M1211.8282,168.78725l-37.99981,0" id="joint" fill="none" stroke="#ff0000" stroke-width="1" font-family="Roboto, sans-serif" font-weight="400"></path><path d="M1240.29842,275.03898l-28.47023,-106.25173" id="joint" fill="none" stroke="#ff0000" stroke-width="1" font-family="Roboto, sans-serif" font-weight="400"></path><path d="M1240.29842,457.55244l0,-182.51346" id="joint" fill="none" stroke="#ff0000" stroke-width="1" font-family="Roboto, sans-serif" font-weight="400"></path><path d="M1240.29842,457.55244l-93.47024,0" id="joint" fill="none" stroke="#ff0000" stroke-width="1" font-family="Roboto, sans-serif" font-weight="400"></path><path d="M1242.09441,168.78725l0,241.99991" id="joint" fill="none" stroke="#ff0000" stroke-width="1" font-family="Roboto, sans-serif" font-weight="400"></path><path d="M1269.09426,457.55244l-26.99985,-46.76528" id="joint" fill="none" stroke="#ff0000" stroke-width="1" font-family="Roboto, sans-serif" font-weight="400"></path><path d="M1307.09442,457.55244l-38.00016,0" id="joint" fill="none" stroke="#ff0000" stroke-width="1" font-family="Roboto, sans-serif" font-weight="400"></path><path d="M1335.5643,351.30071l-28.46987,106.25173" id="joint" fill="none" stroke="#ff0000" stroke-width="1" font-family="Roboto, sans-serif" font-weight="400"></path><path d="M1335.5643,168.78725l0,182.51346" id="joint" fill="none" stroke="#ff0000" stroke-width="1" font-family="Roboto, sans-serif" font-weight="400"></path><path d="M1242.09441,168.78725l93.46988,0" id="joint" fill="none" stroke="#ff0000" stroke-width="1" font-family="Roboto, sans-serif" font-weight="400"></path><path d="M690.88266,168.81724l0,93.47024" id="joint" fill="none" stroke="#ff0000" stroke-width="1" font-family="Roboto, sans-serif" font-weight="400"></path><path d="M1140.88247,168.81724l-449.99981,0" id="joint" fill="none" stroke="#ff0000" stroke-width="1" font-family="Roboto, sans-serif" font-weight="400"></path><path d="M1140.88247,262.28747l-449.99981,0" id="joint" fill="none" stroke="#ff0000" stroke-width="1" font-family="Roboto, sans-serif" font-weight="400"></path><path d="M1140.88247,262.28747l0,-93.47024" id="joint" fill="none" stroke="#ff0000" stroke-width="1" font-family="Roboto, sans-serif" font-weight="400"></path><path d="M690.88266,266.16803l449.99981,0" id="joint" fill="none" stroke="#ff0000" stroke-width="1" font-family="Roboto, sans-serif" font-weight="400"></path><path d="M690.88266,266.16803l0,54.00005" id="joint" fill="none" stroke="#ff0000" stroke-width="1" font-family="Roboto, sans-serif" font-weight="400"></path><path d="M1140.88247,320.16807l0,-54.00005" id="joint" fill="none" stroke="#ff0000" stroke-width="1" font-family="Roboto, sans-serif" font-weight="400"></path><path d="M1140.88247,320.16807l-449.99981,0" id="joint" fill="none" stroke="#ff0000" stroke-width="1" font-family="Roboto, sans-serif" font-weight="400"></path><path d="M690.88266,324.54852l0,38.00016" id="joint" fill="none" stroke="#ff0000" stroke-width="1" font-family="Roboto, sans-serif" font-weight="400"></path><path d="M1140.88247,324.54852l0,38.00016" id="joint" fill="none" stroke="#ff0000" stroke-width="1" font-family="Roboto, sans-serif" font-weight="400"></path><path d="M768.38265,324.04863l-77.49999,0" id="joint" fill="none" stroke="#ff0000" stroke-width="1" font-family="Roboto, sans-serif" font-weight="400"></path><path d="M1140.88247,324.04863l-77.49999,0" id="joint" fill="none" stroke="#ff0000" stroke-width="1" font-family="Roboto, sans-serif" font-weight="400"></path><path d="M768.38265,324.04863l0,18.99991" fill="none" stroke="#000000" stroke-width="0.5" font-family="Roboto, sans-serif" font-weight="400"></path><path d="M1063.38248,324.04863l0,18.99991" fill="none" stroke="#000000" stroke-width="0.5" font-family="Roboto, sans-serif" font-weight="400"></path><path d="M690.88266,365.929l449.99981,0" id="joint" fill="none" stroke="#ff0000" stroke-width="1" font-family="Roboto, sans-serif" font-weight="400"></path><path d="M690.88266,365.929l0,109.99999" id="joint" fill="none" stroke="#ff0000" stroke-width="1" font-family="Roboto, sans-serif" font-weight="400"></path><path d="M1140.88247,365.929l0,109.99999" id="joint" fill="none" stroke="#ff0000" stroke-width="1" font-family="Roboto, sans-serif" font-weight="400"></path><path d="M768.38265,475.92899l-77.49999,0" id="joint" fill="none" stroke="#ff0000" stroke-width="1" font-family="Roboto, sans-serif" font-weight="400"></path><path d="M1140.88247,475.92899l-77.49999,0" id="joint" fill="none" stroke="#ff0000" stroke-width="1" font-family="Roboto, sans-serif" font-weight="400"></path><path d="M768.38265,343.04854l294.99983,0" fill="none" stroke="#000000" stroke-width="0.5" font-family="Roboto, sans-serif" font-weight="400"></path><path d="M768.38265,475.92899l0,-83.99992" fill="none" stroke="#000000" stroke-width="0.5" font-family="Roboto, sans-serif" font-weight="400"></path><path d="M1063.38248,475.92899l0,-83.99992" fill="none" stroke="#000000" stroke-width="0.5" font-family="Roboto, sans-serif" font-weight="400"></path><path d="M768.38265,391.92907l294.99983,0" fill="none" stroke="#000000" stroke-width="0.5" font-family="Roboto, sans-serif" font-weight="400"></path><path d="M690.88266,482.08073l449.99981,0" id="joint" fill="none" stroke="#ff0000" stroke-width="1" font-family="Roboto, sans-serif" font-weight="400"></path><path d="M690.88266,482.08073l0,182.51417" id="joint" fill="none" stroke="#ff0000" stroke-width="1" font-family="Roboto, sans-serif" font-weight="400"></path><path d="M1140.88247,482.08073l0,182.51417" id="joint" fill="none" stroke="#ff0000" stroke-width="1" font-family="Roboto, sans-serif" font-weight="400"></path><path d="M690.88266,362.54868l449.99981,0" id="joint" fill="none" stroke="#ff0000" stroke-width="1" font-family="Roboto, sans-serif" font-weight="400"></path><path d="M690.88266,664.5949l449.99981,0" id="joint" fill="none" stroke="#ff0000" stroke-width="1" font-family="Roboto, sans-serif" font-weight="400"></path><path d="M780.88262,498.08096l0,145.99991" fill="none" stroke="#000000" stroke-width="0.5" font-family="Roboto, sans-serif" font-weight="400"></path><path d="M1050.88251,498.08096l0,145.99991" fill="none" stroke="#000000" stroke-width="0.5" font-family="Roboto, sans-serif" font-weight="400"></path><path d="M780.88262,644.08087l269.99988,0" fill="none" stroke="#000000" stroke-width="0.5" font-family="Roboto, sans-serif" font-weight="400"></path><path d="M905.88096,498.08061" fill="none" stroke="#000000" stroke-width="0.5" font-family="Roboto, sans-serif" font-weight="400"></path><path d="M925.88346,498.08061" fill="none" stroke="#000000" stroke-width="0.5" font-family="Roboto, sans-serif" font-weight="400"></path><path d="M905.88096,498.08061c0.03267,-5.49968 4.50024,-9.9408 10.00002,-9.9408c5.49977,0 9.96735,4.44112 10.00002,9.9408" fill="none" stroke="#000000" stroke-width="0.5" font-family="Roboto, sans-serif" font-weight="400"></path><path d="M780.88262,498.08096l124.99975,0" fill="none" stroke="#000000" stroke-width="0.5" font-family="Roboto, sans-serif" font-weight="400"></path><path d="M925.8824,498.08096l125.0001,0" fill="none" stroke="#000000" stroke-width="0.5" font-family="Roboto, sans-serif" font-weight="400"></path><path d="M1053.88253,498.08096l0,83.99992" fill="none" stroke="#000000" stroke-width="0.5" font-family="Roboto, sans-serif" font-weight="400"></path><path d="M1137.88245,498.08096l0,83.99992" fill="none" stroke="#000000" stroke-width="0.5" font-family="Roboto, sans-serif" font-weight="400"></path><path d="M1053.88253,582.08088l83.99992,0" fill="none" stroke="#000000" stroke-width="0.5" font-family="Roboto, sans-serif" font-weight="400"></path><path d="M1085.8823,498.08061c0.03267,-5.49968 4.50024,-9.9408 10.00002,-9.9408c5.49977,0 9.96735,4.44112 10.00002,9.9408" fill="none" stroke="#000000" stroke-width="0.5" font-family="Roboto, sans-serif" font-weight="400"></path><path d="M1053.88253,498.08096l32.00012,0" fill="none" stroke="#000000" stroke-width="0.5" font-family="Roboto, sans-serif" font-weight="400"></path><path d="M1137.88245,498.08096l-32.00012,0" fill="none" stroke="#000000" stroke-width="0.5" font-family="Roboto, sans-serif" font-weight="400"></path><path d="M693.88233,498.08096l0,83.99992" fill="none" stroke="#000000" stroke-width="0.5" font-family="Roboto, sans-serif" font-weight="400"></path><path d="M777.8826,498.08096l0,83.99992" fill="none" stroke="#000000" stroke-width="0.5" font-family="Roboto, sans-serif" font-weight="400"></path><path d="M693.88233,582.08088l84.00027,0" fill="none" stroke="#000000" stroke-width="0.5" font-family="Roboto, sans-serif" font-weight="400"></path><path d="M725.88245,498.08061c0.03267,-5.49968 4.50024,-9.9408 10.00002,-9.9408c5.49977,0 9.96735,4.44112 10.00002,9.9408" fill="none" stroke="#000000" stroke-width="0.5" font-family="Roboto, sans-serif" font-weight="400"></path><path d="M693.88233,498.08096l32.00012,0" fill="none" stroke="#000000" stroke-width="0.5" font-family="Roboto, sans-serif" font-weight="400"></path><path d="M777.8826,498.08096l-32.00012,0" fill="none" stroke="#000000" stroke-width="0.5" font-family="Roboto, sans-serif" font-weight="400"></path><path d="M1140.88247,675.99385l-449.99981,0" id="joint" fill="none" stroke="#ff0000" stroke-width="1" font-family="Roboto, sans-serif" font-weight="400"></path><path d="M690.88266,675.99385l0,241.99991" id="joint" fill="none" stroke="#ff0000" stroke-width="1" font-family="Roboto, sans-serif" font-weight="400"></path><path d="M1140.88247,675.99385l0,241.99991" id="joint" fill="none" stroke="#ff0000" stroke-width="1" font-family="Roboto, sans-serif" font-weight="400"></path><path d="M690.88266,917.99376l449.99981,0" id="joint" fill="none" stroke="#ff0000" stroke-width="1" font-family="Roboto, sans-serif" font-weight="400"></path><g id="12_joint" stroke="#0000ff" stroke-width="1" font-family="sans-serif" font-weight="normal"><path d="M690.88266,168.81724l0,0l0,0.05l2.9,0l0,11.58378l-2.9,0l0,0.05l0,0l0,11.68378l0,0l0,0.05l2.9,0l0,11.58378l-2.9,0l0,0.05l0,0l0,11.68378l0,0l0,0.05l2.9,0l0,11.58378l-2.9,0l0,0.05l0,0l0,11.68378l0,0l0,0.05l2.9,0l0,11.58378l-2.9,0l0,0.05l0,0l0,11.68378l0,0"></path></g><g id="5_joint" stroke="#0000ff" stroke-width="1" font-family="sans-serif" font-weight="normal"><path d="M1240.29842,457.55244l0,0l-11.68378,0l0,0l-0.05,0l0,-2.9l-11.58378,0l0,2.9l-0.05,0l0,0l-11.68378,0l0,0l-0.05,0l0,-2.9l-11.58378,0l0,2.9l-0.05,0l0,0l-11.68378,0l0,0l-0.05,0l0,-2.9l-11.58378,0l0,2.9l-0.05,0l0,0l-11.68378,0l0,0l-0.05,0l0,-2.9l-11.58378,0l0,2.9l-0.05,0l0,0"></path></g><g id="15_joint" stroke="#0000ff" stroke-width="1" font-family="sans-serif" font-weight="normal"><path d="M1140.88247,262.28747l0,0l0,-0.05l-2.9,0l0,-11.58378l2.9,0l0,-0.05l0,0l0,-11.68378l0,0l0,-0.05l-2.9,0l0,-11.58378l2.9,0l0,-0.05l0,0l0,-11.68378l0,0l0,-0.05l-2.9,0l0,-11.58378l2.9,0l0,-0.05l0,0l0,-11.68378l0,0l0,-0.05l-2.9,0l0,-11.58378l2.9,0l0,-0.05l0,0l0,-11.68378l0,0"></path></g><g id="11_joint" stroke="#0000ff" stroke-width="1" font-family="sans-serif" font-weight="normal"><path d="M1242.09441,168.78725l0,0l11.68378,0l0,0l0.05,0l0,2.9l11.58378,0l0,-2.9l0.05,0l0,0l11.68378,0l0,0l0.05,0l0,2.9l11.58378,0l0,-2.9l0.05,0l0,0l11.68378,0l0,0l0.05,0l0,2.9l11.58378,0l0,-2.9l0.05,0l0,0l11.68378,0l0,0l0.05,0l0,2.9l11.58378,0l0,-2.9l0.05,0l-0.00035,0"></path></g><g id="60_joint" stroke="#0000ff" stroke-width="1" font-family="sans-serif" font-weight="normal"><path d="M1140.88247,675.99385l0,0l-0.05,0l0,2.9l-10.12727,0l0,-2.9l-0.05,0l0,0l-10.22727,0l0,0l-0.05,0l0,2.9l-10.12727,0l0,-2.9l-0.05,0l0,0l-10.22727,0l0,0l-0.05,0l0,2.9l-10.12727,0l0,-2.9l-0.05,0l0,0l-10.22727,0l0,0l-0.05,0l0,2.9l-10.12727,0l0,-2.9l-0.05,0l0,0l-10.22727,0l0,0l-0.05,0l0,2.9l-10.12727,0l0,-2.9l-0.05,0l0,0l-10.22727,0l0,0l-0.05,0l0,2.9l-10.12727,0l0,-2.9l-0.05,0l0,0l-10.22727,0l0,0l-0.05,0l0,2.9l-10.12727,0l0,-2.9l-0.05,0l0,0l-10.22727,0l0,0l-0.05,0l0,2.9l-10.12727,0l0,-2.9l-0.05,0l0,0l-10.22727,0l0,0l-0.05,0l0,2.9l-10.12727,0l0,-2.9l-0.05,0l0,0l-10.22727,0l0,0l-0.05,0l0,2.9l-10.12727,0l0,-2.9l-0.05,0l0,0l-10.22727,0l0,0l-0.05,0l0,2.9l-10.12727,0l0,-2.9l-0.05,0l0,0l-10.22727,0l0,0l-0.05,0l0,2.9l-10.12727,0l0,-2.9l-0.05,0l0,0l-10.22727,0l0,0l-0.05,0l0,2.9l-10.12727,0l0,-2.9l-0.05,0l0,0l-10.22727,0l0,0l-0.05,0l0,2.9l-10.12727,0l0,-2.9l-0.05,0l0,0l-10.22727,0l0,0l-0.05,0l0,2.9l-10.12727,0l0,-2.9l-0.05,0l0,0l-10.22727,0l0,0l-0.05,0l0,2.9l-10.12727,0l0,-2.9l-0.05,0l0,0l-10.22727,0l0,0l-0.05,0l0,2.9l-10.12727,0l0,-2.9l-0.05,0l0,0l-10.22727,0l0,0l-0.05,0l0,2.9l-10.12727,0l0,-2.9l-0.05,0l0,0l-10.22727,0l0,0l-0.05,0l0,2.9l-10.12727,0l0,-2.9l-0.05,0l0,0l-10.22727,0l0,0l-0.05,0l0,2.9l-10.12727,0l0,-2.9l-0.05,0l0,0l-10.22727,0l0,0l-0.05,0l0,2.9l-10.12727,0l0,-2.9l-0.05,0l0,0l-10.22727,0l0,0l-0.05,0l0,2.9l-10.12727,0l0,-2.9l-0.05,0l0,0l-10.22727,0l0,0"></path></g><g id="14_joint" stroke="#0000ff" stroke-width="1" font-family="sans-serif" font-weight="normal"><path d="M1140.88247,262.28747l0,0l-10.22727,0l0,0l-0.05,0l0,-2.9l-10.12727,0l0,2.9l-0.05,0l0,0l-10.22727,0l0,0l-0.05,0l0,-2.9l-10.12727,0l0,2.9l-0.05,0l0,0l-10.22727,0l0,0l-0.05,0l0,-2.9l-10.12727,0l0,2.9l-0.05,0l0,0l-10.22727,0l0,0l-0.05,0l0,-2.9l-10.12727,0l0,2.9l-0.05,0l0,0l-10.22727,0l0,0l-0.05,0l0,-2.9l-10.12727,0l0,2.9l-0.05,0l0,0l-10.22727,0l0,0l-0.05,0l0,-2.9l-10.12727,0l0,2.9l-0.05,0l0,0l-10.22727,0l0,0l-0.05,0l0,-2.9l-10.12727,0l0,2.9l-0.05,0l0,0l-10.22727,0l0,0l-0.05,0l0,-2.9l-10.12727,0l0,2.9l-0.05,0l0,0l-10.22727,0l0,0l-0.05,0l0,-2.9l-10.12727,0l0,2.9l-0.05,0l0,0l-10.22727,0l0,0l-0.05,0l0,-2.9l-10.12727,0l0,2.9l-0.05,0l0,0l-10.22727,0l0,0l-0.05,0l0,-2.9l-10.12727,0l0,2.9l-0.05,0l0,0l-10.22727,0l0,0l-0.05,0l0,-2.9l-10.12727,0l0,2.9l-0.05,0l0,0l-10.22727,0l0,0l-0.05,0l0,-2.9l-10.12727,0l0,2.9l-0.05,0l0,0l-10.22727,0l0,0l-0.05,0l0,-2.9l-10.12727,0l0,2.9l-0.05,0l0,0l-10.22727,0l0,0l-0.05,0l0,-2.9l-10.12727,0l0,2.9l-0.05,0l0,0l-10.22727,0l0,0l-0.05,0l0,-2.9l-10.12727,0l0,2.9l-0.05,0l0,0l-10.22727,0l0,0l-0.05,0l0,-2.9l-10.12727,0l0,2.9l-0.05,0l0,0l-10.22727,0l0,0l-0.05,0l0,-2.9l-10.12727,0l0,2.9l-0.05,0l0,0l-10.22727,0l0,0l-0.05,0l0,-2.9l-10.12727,0l0,2.9l-0.05,0l0,0l-10.22727,0l0,0l-0.05,0l0,-2.9l-10.12727,0l0,2.9l-0.05,0l0,0l-10.22727,0l0,0l-0.05,0l0,-2.9l-10.12727,0l0,2.9l-0.05,0l0,0l-10.22727,0l0,0l-0.05,0l0,-2.9l-10.12727,0l0,2.9l-0.05,0l0,0"></path></g><g id="13_joint" stroke="#0000ff" stroke-width="1" font-family="sans-serif" font-weight="normal"><path d="M1140.88247,168.81724l0,0l-0.05,0l0,2.9l-10.12727,0l0,-2.9l-0.05,0l0,0l-10.22727,0l0,0l-0.05,0l0,2.9l-10.12727,0l0,-2.9l-0.05,0l0,0l-10.22727,0l0,0l-0.05,0l0,2.9l-10.12727,0l0,-2.9l-0.05,0l0,0l-10.22727,0l0,0l-0.05,0l0,2.9l-10.12727,0l0,-2.9l-0.05,0l0,0l-10.22727,0l0,0l-0.05,0l0,2.9l-10.12727,0l0,-2.9l-0.05,0l0,0l-10.22727,0l0,0l-0.05,0l0,2.9l-10.12727,0l0,-2.9l-0.05,0l0,0l-10.22727,0l0,0l-0.05,0l0,2.9l-10.12727,0l0,-2.9l-0.05,0l0,0l-10.22727,0l0,0l-0.05,0l0,2.9l-10.12727,0l0,-2.9l-0.05,0l0,0l-10.22727,0l0,0l-0.05,0l0,2.9l-10.12727,0l0,-2.9l-0.05,0l0,0l-10.22727,0l0,0l-0.05,0l0,2.9l-10.12727,0l0,-2.9l-0.05,0l0,0l-10.22727,0l0,0l-0.05,0l0,2.9l-10.12727,0l0,-2.9l-0.05,0l0,0l-10.22727,0l0,0l-0.05,0l0,2.9l-10.12727,0l0,-2.9l-0.05,0l0,0l-10.22727,0l0,0l-0.05,0l0,2.9l-10.12727,0l0,-2.9l-0.05,0l0,0l-10.22727,0l0,0l-0.05,0l0,2.9l-10.12727,0l0,-2.9l-0.05,0l0,0l-10.22727,0l0,0l-0.05,0l0,2.9l-10.12727,0l0,-2.9l-0.05,0l0,0l-10.22727,0l0,0l-0.05,0l0,2.9l-10.12727,0l0,-2.9l-0.05,0l0,0l-10.22727,0l0,0l-0.05,0l0,2.9l-10.12727,0l0,-2.9l-0.05,0l0,0l-10.22727,0l0,0l-0.05,0l0,2.9l-10.12727,0l0,-2.9l-0.05,0l0,0l-10.22727,0l0,0l-0.05,0l0,2.9l-10.12727,0l0,-2.9l-0.05,0l0,0l-10.22727,0l0,0l-0.05,0l0,2.9l-10.12727,0l0,-2.9l-0.05,0l0,0l-10.22727,0l0,0l-0.05,0l0,2.9l-10.12727,0l0,-2.9l-0.05,0l0,0l-10.22727,0l0,0l-0.05,0l0,2.9l-10.12727,0l0,-2.9l-0.05,0l0,0l-10.22727,0l0,0"></path></g><g id="35_joint" stroke="#0000ff" stroke-width="1" font-family="sans-serif" font-weight="normal"><path d="M690.88266,482.08073l0,0l10.22727,0l0,0l0.05,0l0,2.9l10.12727,0l0,-2.9l0.05,0l0,0l10.22727,0l0,0l0.05,0l0,2.9l10.12727,0l0,-2.9l0.05,0l0,0l10.22727,0l0,0l0.05,0l0,2.9l10.12727,0l0,-2.9l0.05,0l0,0l10.22727,0l0,0l0.05,0l0,2.9l10.12727,0l0,-2.9l0.05,0l0,0l10.22727,0l0,0l0.05,0l0,2.9l10.12727,0l0,-2.9l0.05,0l0,0l10.22727,0l0,0l0.05,0l0,2.9l10.12727,0l0,-2.9l0.05,0l0,0l10.22727,0l0,0l0.05,0l0,2.9l10.12727,0l0,-2.9l0.05,0l0,0l10.22727,0l0,0l0.05,0l0,2.9l10.12727,0l0,-2.9l0.05,0l0,0l10.22727,0l0,0l0.05,0l0,2.9l10.12727,0l0,-2.9l0.05,0l0,0l10.22727,0l0,0l0.05,0l0,2.9l10.12727,0l0,-2.9l0.05,0l0,0l10.22727,0l0,0l0.05,0l0,2.9l10.12727,0l0,-2.9l0.05,0l0,0l10.22727,0l0,0l0.05,0l0,2.9l10.12727,0l0,-2.9l0.05,0l0,0l10.22727,0l0,0l0.05,0l0,2.9l10.12727,0l0,-2.9l0.05,0l0,0l10.22727,0l0,0l0.05,0l0,2.9l10.12727,0l0,-2.9l0.05,0l0,0l10.22727,0l0,0l0.05,0l0,2.9l10.12727,0l0,-2.9l0.05,0l0,0l10.22727,0l0,0l0.05,0l0,2.9l10.12727,0l0,-2.9l0.05,0l0,0l10.22727,0l0,0l0.05,0l0,2.9l10.12727,0l0,-2.9l0.05,0l0,0l10.22727,0l0,0l0.05,0l0,2.9l10.12727,0l0,-2.9l0.05,0l0,0l10.22727,0l0,0l0.05,0l0,2.9l10.12727,0l0,-2.9l0.05,0l0,0l10.22727,0l0,0l0.05,0l0,2.9l10.12727,0l0,-2.9l0.05,0l0,0l10.22727,0l0,0l0.05,0l0,2.9l10.12727,0l0,-2.9l0.05,0l0,0l10.22727,0l0,0l0.05,0l0,2.9l10.12727,0l0,-2.9l0.05,0l0,0"></path></g><g id="4_joint" stroke="#0000ff" stroke-width="1" font-family="sans-serif" font-weight="normal"><path d="M1240.29842,457.55244l0,0l0,-0.05l-2.9,0l0,-10.03964l2.9,0l0,-0.05l0,0l0,-10.13964l0,0l0,-0.05l-2.9,0l0,-10.03964l2.9,0l0,-0.05l0,0l0,-10.13964l0,0l0,-0.05l-2.9,0l0,-10.03964l2.9,0l0,-0.05l0,0l0,-10.13964l0,0l0,-0.05l-2.9,0l0,-10.03964l2.9,0l0,-0.05l0,0l0,-10.13964l0,0l0,-0.05l-2.9,0l0,-10.03964l2.9,0l0,-0.05l0,0l0,-10.13964l0,0l0,-0.05l-2.9,0l0,-10.03964l2.9,0l0,-0.05l0,0l0,-10.13964l0,0l0,-0.05l-2.9,0l0,-10.03964l2.9,0l0,-0.05l0,0l0,-10.13964l0,0l0,-0.05l-2.9,0l0,-10.03964l2.9,0l0,-0.05l0,0l0,-10.13964l0,0l0,-0.05l-2.9,0l0,-10.03964l2.9,0l0,-0.05l0,0l0,-10.13964l0,0"></path></g><g id="37_joint" stroke="#0000ff" stroke-width="1" font-family="sans-serif" font-weight="normal"><path d="M1140.88247,482.08073l0,0l0,10.13964l0,0l0,0.05l-2.9,0l0,10.03964l2.9,0l0,0.05l0,0l0,10.13964l0,0l0,0.05l-2.9,0l0,10.03964l2.9,0l0,0.05l0,0l0,10.13964l0,0l0,0.05l-2.9,0l0,10.03964l2.9,0l0,0.05l0,0l0,10.13964l0,0l0,0.05l-2.9,0l0,10.03964l2.9,0l0,0.05l0,0l0,10.13964l0,0l0,0.05l-2.9,0l0,10.03964l2.9,0l0,0.05l0,0l0,10.13964l0,0l0,0.05l-2.9,0l0,10.03964l2.9,0l0,0.05l0,0l0,10.13964l0,0l0,0.05l-2.9,0l0,10.03964l2.9,0l0,0.05l0,0l0,10.13964l0,0l0,0.05l-2.9,0l0,10.03964l2.9,0l0,0.05l0,0l0,10.13964l0,0l0,0.05l-2.9,0l0,10.03964l2.9,0l0,0.05l0,0.00071"></path></g><g id="36_joint" stroke="#0000ff" stroke-width="1" font-family="sans-serif" font-weight="normal"><path d="M690.88266,482.08073l0,0l0,0.05l2.9,0l0,10.03968l-2.9,0l0,0.05l0,0l0,10.13968l0,0l0,0.05l2.9,0l0,10.03968l-2.9,0l0,0.05l0,0l0,10.13968l0,0l0,0.05l2.9,0l0,10.03968l-2.9,0l0,0.05l0,0l0,10.13968l0,0l0,0.05l2.9,0l0,10.03968l-2.9,0l0,0.05l0,0l0,10.13968l0,0l0,0.05l2.9,0l0,10.03968l-2.9,0l0,0.05l0,0l0,10.13968l0,0l0,0.05l2.9,0l0,10.03968l-2.9,0l0,0.05l0,0l0,10.13968l0,0l0,0.05l2.9,0l0,10.03968l-2.9,0l0,0.05l0,0l0,10.13968l0,0l0,0.05l2.9,0l0,10.03968l-2.9,0l0,0.05l0,0l0,10.13968l0,0l0,0.05l2.9,0l0,10.03968l-2.9,0l0,0.05l0,0l0,10.13968l0,0"></path></g><g id="10_joint" stroke="#0000ff" stroke-width="1" font-family="sans-serif" font-weight="normal"><path d="M1335.5643,168.78725l0,0l0,10.13968l0,0l0,0.05l-2.9,0l0,10.03968l2.9,0l0,0.05l0,0l0,10.13968l0,0l0,0.05l-2.9,0l0,10.03968l2.9,0l0,0.05l0,0l0,10.13968l0,0l0,0.05l-2.9,0l0,10.03968l2.9,0l0,0.05l0,0l0,10.13968l0,0l0,0.05l-2.9,0l0,10.03968l2.9,0l0,0.05l0,0l0,10.13968l0,0l0,0.05l-2.9,0l0,10.03968l2.9,0l0,0.05l0,0l0,10.13968l0,0l0,0.05l-2.9,0l0,10.03968l2.9,0l0,0.05l0,0l0,10.13968l0,0l0,0.05l-2.9,0l0,10.03968l2.9,0l0,0.05l0,0l0,10.13968l0,0l0,0.05l-2.9,0l0,10.03968l2.9,0l0,0.05l0,0l0,10.13968l0,0l0,0.05l-2.9,0l0,10.03968l2.9,0l0,0.05l0,-0.00071"></path></g><g id="39_joint" stroke="#0000ff" stroke-width="1" font-family="sans-serif" font-weight="normal"><path d="M690.88266,664.5949l0,0l0.05,0l0,-0.38179l10.12727,0l0,0.38179l0,0.36878l10.32727,0l0,-0.36878l0,-0.38179l10.12727,0l0,0.38179l0,0.36878l10.32727,0l0,-0.36878l0,-0.38179l10.12727,0l0,0.38179l0,0.36878l10.32727,0l0,-0.36878l0,-0.38179l10.12727,0l0,0.38179l0,0.36878l10.32727,0l0,-0.36878l0,-0.38179l10.12727,0l0,0.38179l0,0.36878l10.32727,0l0,-0.36878l0,-0.38179l10.12727,0l0,0.38179l0,0.36878l10.32727,0l0,-0.36878l0,-0.38179l10.12727,0l0,0.38179l0,0.36878l10.32727,0l0,-0.36878l0,-0.38179l10.12727,0l0,0.38179l0,0.36878l10.32727,0l0,-0.36878l0,-0.38179l10.12727,0l0,0.38179l0,0.36878l10.32727,0l0,-0.36878l0,-0.38179l10.12727,0l0,0.38179l0,0.36878l10.32727,0l0,-0.36878l0,-0.38179l10.12727,0l0,0.38179l0,0.36878l10.32727,0l0,-0.36878l0,-0.38179l10.12727,0l0,0.38179l0,0.36878l10.32727,0l0,-0.36878l0,-0.38179l10.12727,0l0,0.38179l0,0.36878l10.32727,0l0,-0.36878l0,-0.38179l10.12727,0l0,0.38179l0,0.36878l10.32727,0l0,-0.36878l0,-0.38179l10.12727,0l0,0.38179l0,0.36878l10.32727,0l0,-0.36878l0,-0.38179l10.12727,0l0,0.38179l0,0.36878l10.32727,0l0,-0.36878l0,-0.38179l10.12727,0l0,0.38179l0,0.36878l10.32727,0l0,-0.36878l0,-0.38179l10.12727,0l0,0.38179l0,0.36878l10.32727,0l0,-0.36878l0,-0.38179l10.12727,0l0,0.38179l0,0.36878l10.32727,0l0,-0.36878l0,-0.38179l10.12727,0l0,0.38179l0,0.36878l10.32727,0l0,-0.36878l0,-0.38179l10.12727,0l0,0.38179l0,0.36878l10.32727,0l0,-0.36878l0,-0.38179l10.12727,0l0,0.38179l0,0.36878l10.32727,0l-0.05,-0.36878l0,0"></path></g><g id="26_joint" stroke="#0000ff" stroke-width="1" font-family="sans-serif" font-weight="normal"><path d="M690.88266,365.929l0,0l-0.05,-0.36878l10.32727,0l0,0.36878l0,0.38179l10.12727,0l0,-0.38179l0,-0.36878l10.32727,0l0,0.36878l0,0.38179l10.12727,0l0,-0.38179l0,-0.36878l10.32727,0l0,0.36878l0,0.38179l10.12727,0l0,-0.38179l0,-0.36878l10.32727,0l0,0.36878l0,0.38179l10.12727,0l0,-0.38179l0,-0.36878l10.32727,0l0,0.36878l0,0.38179l10.12727,0l0,-0.38179l0,-0.36878l10.32727,0l0,0.36878l0,0.38179l10.12727,0l0,-0.38179l0,-0.36878l10.32727,0l0,0.36878l0,0.38179l10.12727,0l0,-0.38179l0,-0.36878l10.32727,0l0,0.36878l0,0.38179l10.12727,0l0,-0.38179l0,-0.36878l10.32727,0l0,0.36878l0,0.38179l10.12727,0l0,-0.38179l0,-0.36878l10.32727,0l0,0.36878l0,0.38179l10.12727,0l0,-0.38179l0,-0.36878l10.32727,0l0,0.36878l0,0.38179l10.12727,0l0,-0.38179l0,-0.36878l10.32727,0l0,0.36878l0,0.38179l10.12727,0l0,-0.38179l0,-0.36878l10.32727,0l0,0.36878l0,0.38179l10.12727,0l0,-0.38179l0,-0.36878l10.32727,0l0,0.36878l0,0.38179l10.12727,0l0,-0.38179l0,-0.36878l10.32727,0l0,0.36878l0,0.38179l10.12727,0l0,-0.38179l0,-0.36878l10.32727,0l0,0.36878l0,0.38179l10.12727,0l0,-0.38179l0,-0.36878l10.32727,0l0,0.36878l0,0.38179l10.12727,0l0,-0.38179l0,-0.36878l10.32727,0l0,0.36878l0,0.38179l10.12727,0l0,-0.38179l0,-0.36878l10.32727,0l0,0.36878l0,0.38179l10.12727,0l0,-0.38179l0,-0.36878l10.32727,0l0,0.36878l0,0.38179l10.12727,0l0,-0.38179l0,-0.36878l10.32727,0l0,0.36878l0,0.38179l10.12727,0l0,-0.38179l0,-0.36878l10.32727,0l0,0.36878l0,0.38179l10.12727,0l0,-0.38179l0.05,0l0,0"></path></g><g id="61_joint" stroke="#0000ff" stroke-width="1" font-family="sans-serif" font-weight="normal"><path d="M690.88266,675.99385l0,0l0,0.05l2.9,0l0,9.98333l-2.9,0l0,0.05l0,0l0,10.08333l0,0l0,0.05l2.9,0l0,9.98333l-2.9,0l0,0.05l0,0l0,10.08333l0,0l0,0.05l2.9,0l0,9.98333l-2.9,0l0,0.05l0,0l0,10.08333l0,0l0,0.05l2.9,0l0,9.98333l-2.9,0l0,0.05l0,0l0,10.08333l0,0l0,0.05l2.9,0l0,9.98333l-2.9,0l0,0.05l0,0l0,10.08333l0,0l0,0.05l2.9,0l0,9.98333l-2.9,0l0,0.05l0,0l0,10.08333l0,0l0,0.05l2.9,0l0,9.98333l-2.9,0l0,0.05l0,0l0,10.08333l0,0l0,0.05l2.9,0l0,9.98333l-2.9,0l0,0.05l0,0l0,10.08333l0,0l0,0.05l2.9,0l0,9.98333l-2.9,0l0,0.05l0,0l0,10.08333l0,0l0,0.05l2.9,0l0,9.98333l-2.9,0l0,0.05l0,0l0,10.08333l0,0l0,0.05l2.9,0l0,9.98333l-2.9,0l0,0.05l0,0l0,10.08333l0,0l0,0.05l2.9,0l0,9.98333l-2.9,0l0,0.05l0,0l0,10.08333l0,0"></path></g><g id="0_joint" stroke="#0000ff" stroke-width="1" font-family="sans-serif" font-weight="normal"><path d="M1146.82819,457.55244l0,0l0,-10.08333l0,0l0,-0.05l2.9,0l0,-9.98333l-2.9,0l0,-0.05l0,0l0,-10.08333l0,0l0,-0.05l2.9,0l0,-9.98333l-2.9,0l0,-0.05l0,0l0,-10.08333l0,0l0,-0.05l2.9,0l0,-9.98333l-2.9,0l0,-0.05l0,0l0,-10.08333l0,0l0,-0.05l2.9,0l0,-9.98333l-2.9,0l0,-0.05l0,0l0,-10.08333l0,0l0,-0.05l2.9,0l0,-9.98333l-2.9,0l0,-0.05l0,0l0,-10.08333l0,0l0,-0.05l2.9,0l0,-9.98333l-2.9,0l0,-0.05l0,0l0,-10.08333l0,0l0,-0.05l2.9,0l0,-9.98333l-2.9,0l0,-0.05l0,0l0,-10.08333l0,0l0,-0.05l2.9,0l0,-9.98333l-2.9,0l0,-0.05l0,0l0,-10.08333l0,0l0,-0.05l2.9,0l0,-9.98333l-2.9,0l0,-0.05l0,0l0,-10.08333l0,0l0,-0.05l2.9,0l0,-9.98333l-2.9,0l0,-0.05l0,0l0,-10.08333l0,0l0,-0.05l2.9,0l0,-9.98333l-2.9,0l0,-0.05l0,0l0,-10.08333l0,0l0,-0.05l2.9,0l0,-9.98333l-2.9,0l0,-0.05l0,0"></path></g><g id="6_joint" stroke="#0000ff" stroke-width="1" font-family="sans-serif" font-weight="normal"><path d="M1242.09441,168.78725l0,0l0,0.05l2.9,0l0,9.98333l-2.9,0l0,0.05l0,0l0,10.08333l0,0l0,0.05l2.9,0l0,9.98333l-2.9,0l0,0.05l0,0l0,10.08333l0,0l0,0.05l2.9,0l0,9.98333l-2.9,0l0,0.05l0,0l0,10.08333l0,0l0,0.05l2.9,0l0,9.98333l-2.9,0l0,0.05l0,0l0,10.08333l0,0l0,0.05l2.9,0l0,9.98333l-2.9,0l0,0.05l0,0l0,10.08333l0,0l0,0.05l2.9,0l0,9.98333l-2.9,0l0,0.05l0,0l0,10.08333l0,0l0,0.05l2.9,0l0,9.98333l-2.9,0l0,0.05l0,0l0,10.08333l0,0l0,0.05l2.9,0l0,9.98333l-2.9,0l0,0.05l0,0l0,10.08333l0,0l0,0.05l2.9,0l0,9.98333l-2.9,0l0,0.05l0,0l0,10.08333l0,0l0,0.05l2.9,0l0,9.98333l-2.9,0l0,0.05l0,0l0,10.08333l0,0l0,0.05l2.9,0l0,9.98333l-2.9,0l0,0.05l0,0l0,10.08333l0,0l0,0.05l2.9,0l0,9.98333l-2.9,0l0,0.05l0,0l0,10.08333l0,0"></path></g><g id="62_joint" stroke="#0000ff" stroke-width="1" font-family="sans-serif" font-weight="normal"><path d="M1140.88247,675.99385l0,0l0,10.08333l0,0l0,0.05l-2.9,0l0,9.98333l2.9,0l0,0.05l0,0l0,10.08333l0,0l0,0.05l-2.9,0l0,9.98333l2.9,0l0,0.05l0,0l0,10.08333l0,0l0,0.05l-2.9,0l0,9.98333l2.9,0l0,0.05l0,0l0,10.08333l0,0l0,0.05l-2.9,0l0,9.98333l2.9,0l0,0.05l0,0l0,10.08333l0,0l0,0.05l-2.9,0l0,9.98333l2.9,0l0,0.05l0,0l0,10.08333l0,0l0,0.05l-2.9,0l0,9.98333l2.9,0l0,0.05l0,0l0,10.08333l0,0l0,0.05l-2.9,0l0,9.98333l2.9,0l0,0.05l0,0l0,10.08333l0,0l0,0.05l-2.9,0l0,9.98333l2.9,0l0,0.05l0,0l0,10.08333l0,0l0,0.05l-2.9,0l0,9.98333l2.9,0l0,0.05l0,0l0,10.08333l0,0l0,0.05l-2.9,0l0,9.98333l2.9,0l0,0.05l0,0l0,10.08333l0,0l0,0.05l-2.9,0l0,9.98333l2.9,0l0,0.05l0,0l0,10.08333l0,0l0,0.05l-2.9,0l0,9.98333l2.9,0l0,0.05l0,0"></path></g><g id="63_joint" stroke="#0000ff" stroke-width="1" font-family="sans-serif" font-weight="normal"><path d="M690.88266,917.99376l0,0l0.05,0l0,-0.77705l10.12727,0l0,0.77705l0,0.67295l10.32727,0l0,-0.67295l0,-0.77705l10.12727,0l0,0.77705l0,0.67295l10.32727,0l0,-0.67295l0,-0.77705l10.12727,0l0,0.77705l0,0.67295l10.32727,0l0,-0.67295l0,-0.77705l10.12727,0l0,0.77705l0,0.67295l10.32727,0l0,-0.67295l0,-0.77705l10.12727,0l0,0.77705l0,0.67295l10.32727,0l0,-0.67295l0,-0.77705l10.12727,0l0,0.77705l0,0.67295l10.32727,0l0,-0.67295l0,-0.77705l10.12727,0l0,0.77705l0,0.67295l10.32727,0l0,-0.67295l0,-0.77705l10.12727,0l0,0.77705l0,0.67295l10.32727,0l0,-0.67295l0,-0.77705l10.12727,0l0,0.77705l0,0.67295l10.32727,0l0,-0.67295l0,-0.77705l10.12727,0l0,0.77705l0,0.67295l10.32727,0l0,-0.67295l0,-0.77705l10.12727,0l0,0.77705l0,0.67295l10.32727,0l0,-0.67295l0,-0.77705l10.12727,0l0,0.77705l0,0.67295l10.32727,0l0,-0.67295l0,-0.77705l10.12727,0l0,0.77705l0,0.67295l10.32727,0l0,-0.67295l0,-0.77705l10.12727,0l0,0.77705l0,0.67295l10.32727,0l0,-0.67295l0,-0.77705l10.12727,0l0,0.77705l0,0.67295l10.32727,0l0,-0.67295l0,-0.77705l10.12727,0l0,0.77705l0,0.67295l10.32727,0l0,-0.67295l0,-0.77705l10.12727,0l0,0.77705l0,0.67295l10.32727,0l0,-0.67295l0,-0.77705l10.12727,0l0,0.77705l0,0.67295l10.32727,0l0,-0.67295l0,-0.77705l10.12727,0l0,0.77705l0,0.67295l10.32727,0l0,-0.67295l0,-0.77705l10.12727,0l0,0.77705l0,0.67295l10.32727,0l0,-0.67295l0,-0.77705l10.12727,0l0,0.77705l0,0.67295l10.32727,0l0,-0.67295l0,-0.77705l10.12727,0l0,0.77705l0,0.67295l10.32727,0l-0.05,-0.67295l0,0"></path></g><g id="19_joint" stroke="#0000ff" stroke-width="1" font-family="sans-serif" font-weight="normal"><path d="M1140.88247,320.16807l0,0l0.05,0.67295l-10.32727,0l0,-0.67295l0,-0.77705l-10.12727,0l0,0.77705l0,0.67295l-10.32727,0l0,-0.67295l0,-0.77705l-10.12727,0l0,0.77705l0,0.67295l-10.32727,0l0,-0.67295l0,-0.77705l-10.12727,0l0,0.77705l0,0.67295l-10.32727,0l0,-0.67295l0,-0.77705l-10.12727,0l0,0.77705l0,0.67295l-10.32727,0l0,-0.67295l0,-0.77705l-10.12727,0l0,0.77705l0,0.67295l-10.32727,0l0,-0.67295l0,-0.77705l-10.12727,0l0,0.77705l0,0.67295l-10.32727,0l0,-0.67295l0,-0.77705l-10.12727,0l0,0.77705l0,0.67295l-10.32727,0l0,-0.67295l0,-0.77705l-10.12727,0l0,0.77705l0,0.67295l-10.32727,0l0,-0.67295l0,-0.77705l-10.12727,0l0,0.77705l0,0.67295l-10.32727,0l0,-0.67295l0,-0.77705l-10.12727,0l0,0.77705l0,0.67295l-10.32727,0l0,-0.67295l0,-0.77705l-10.12727,0l0,0.77705l0,0.67295l-10.32727,0l0,-0.67295l0,-0.77705l-10.12727,0l0,0.77705l0,0.67295l-10.32727,0l0,-0.67295l0,-0.77705l-10.12727,0l0,0.77705l0,0.67295l-10.32727,0l0,-0.67295l0,-0.77705l-10.12727,0l0,0.77705l0,0.67295l-10.32727,0l0,-0.67295l0,-0.77705l-10.12727,0l0,0.77705l0,0.67295l-10.32727,0l0,-0.67295l0,-0.77705l-10.12727,0l0,0.77705l0,0.67295l-10.32727,0l0,-0.67295l0,-0.77705l-10.12727,0l0,0.77705l0,0.67295l-10.32727,0l0,-0.67295l0,-0.77705l-10.12727,0l0,0.77705l0,0.67295l-10.32727,0l0,-0.67295l0,-0.77705l-10.12727,0l0,0.77705l0,0.67295l-10.32727,0l0,-0.67295l0,-0.77705l-10.12727,0l0,0.77705l0,0.67295l-10.32727,0l0,-0.67295l0,-0.77705l-10.12727,0l0,0.77705l0,0.67295l-10.32727,0l0,-0.67295l0,-0.77705l-10.12727,0l0,0.77705l-0.05,0l0,0"></path></g><g id="38_joint" stroke="#0000ff" stroke-width="1" font-family="sans-serif" font-weight="normal"><path d="M690.88266,362.54868l0,0l0.05,0l0,-1.67432l10.12727,0l0,1.67432l0,0.83716l10.32727,0l0,-0.83716l0,-1.67432l10.12727,0l0,1.67432l0,0.83716l10.32727,0l0,-0.83716l0,-1.67432l10.12727,0l0,1.67432l0,0.83716l10.32727,0l0,-0.83716l0,-1.67432l10.12727,0l0,1.67432l0,0.83716l10.32727,0l0,-0.83716l0,-1.67432l10.12727,0l0,1.67432l0,0.83716l10.32727,0l0,-0.83716l0,-1.67432l10.12727,0l0,1.67432l0,0.83716l10.32727,0l0,-0.83716l0,-1.67432l10.12727,0l0,1.67432l0,0.83716l10.32727,0l0,-0.83716l0,-1.67432l10.12727,0l0,1.67432l0,0.83716l10.32727,0l0,-0.83716l0,-1.67432l10.12727,0l0,1.67432l0,0.83716l10.32727,0l0,-0.83716l0,-1.67432l10.12727,0l0,1.67432l0,0.83716l10.32727,0l0,-0.83716l0,-1.67432l10.12727,0l0,1.67432l0,0.83716l10.32727,0l0,-0.83716l0,-1.67432l10.12727,0l0,1.67432l0,0.83716l10.32727,0l0,-0.83716l0,-1.67432l10.12727,0l0,1.67432l0,0.83716l10.32727,0l0,-0.83716l0,-1.67432l10.12727,0l0,1.67432l0,0.83716l10.32727,0l0,-0.83716l0,-1.67432l10.12727,0l0,1.67432l0,0.83716l10.32727,0l0,-0.83716l0,-1.67432l10.12727,0l0,1.67432l0,0.83716l10.32727,0l0,-0.83716l0,-1.67432l10.12727,0l0,1.67432l0,0.83716l10.32727,0l0,-0.83716l0,-1.67432l10.12727,0l0,1.67432l0,0.83716l10.32727,0l0,-0.83716l0,-1.67432l10.12727,0l0,1.67432l0,0.83716l10.32727,0l0,-0.83716l0,-1.67432l10.12727,0l0,1.67432l0,0.83716l10.32727,0l0,-0.83716l0,-1.67432l10.12727,0l0,1.67432l0,0.83716l10.32727,0l0,-0.83716l0,-1.67432l10.12727,0l0,1.67432l0,0.83716l10.32727,0l-0.05,-0.83716l0,0"></path></g><g id="16_joint" stroke="#0000ff" stroke-width="1" font-family="sans-serif" font-weight="normal"><path d="M690.88266,266.16803l0,0l-0.05,-0.83716l10.32727,0l0,0.83716l0,1.67432l10.12727,0l0,-1.67432l0,-0.83716l10.32727,0l0,0.83716l0,1.67432l10.12727,0l0,-1.67432l0,-0.83716l10.32727,0l0,0.83716l0,1.67432l10.12727,0l0,-1.67432l0,-0.83716l10.32727,0l0,0.83716l0,1.67432l10.12727,0l0,-1.67432l0,-0.83716l10.32727,0l0,0.83716l0,1.67432l10.12727,0l0,-1.67432l0,-0.83716l10.32727,0l0,0.83716l0,1.67432l10.12727,0l0,-1.67432l0,-0.83716l10.32727,0l0,0.83716l0,1.67432l10.12727,0l0,-1.67432l0,-0.83716l10.32727,0l0,0.83716l0,1.67432l10.12727,0l0,-1.67432l0,-0.83716l10.32727,0l0,0.83716l0,1.67432l10.12727,0l0,-1.67432l0,-0.83716l10.32727,0l0,0.83716l0,1.67432l10.12727,0l0,-1.67432l0,-0.83716l10.32727,0l0,0.83716l0,1.67432l10.12727,0l0,-1.67432l0,-0.83716l10.32727,0l0,0.83716l0,1.67432l10.12727,0l0,-1.67432l0,-0.83716l10.32727,0l0,0.83716l0,1.67432l10.12727,0l0,-1.67432l0,-0.83716l10.32727,0l0,0.83716l0,1.67432l10.12727,0l0,-1.67432l0,-0.83716l10.32727,0l0,0.83716l0,1.67432l10.12727,0l0,-1.67432l0,-0.83716l10.32727,0l0,0.83716l0,1.67432l10.12727,0l0,-1.67432l0,-0.83716l10.32727,0l0,0.83716l0,1.67432l10.12727,0l0,-1.67432l0,-0.83716l10.32727,0l0,0.83716l0,1.67432l10.12727,0l0,-1.67432l0,-0.83716l10.32727,0l0,0.83716l0,1.67432l10.12727,0l0,-1.67432l0,-0.83716l10.32727,0l0,0.83716l0,1.67432l10.12727,0l0,-1.67432l0,-0.83716l10.32727,0l0,0.83716l0,1.67432l10.12727,0l0,-1.67432l0,-0.83716l10.32727,0l0,0.83716l0,1.67432l10.12727,0l0,-1.67432l0.05,0l0,0"></path></g><g id="22_joint" stroke="#0000ff" stroke-width="1" font-family="sans-serif" font-weight="normal"><path d="M768.38265,324.04863l0,0l-0.05,0l0,2.22525l-12.81666,0l0,-2.22525l0,-0.57594l-13.01666,0l0,0.57594l0,2.22525l-12.81666,0l0,-2.22525l0,-0.57594l-13.01666,0l0,0.57594l0,2.22525l-12.81666,0l0,-2.22525l0,-0.57594l-13.01666,0l0.05,0.57594l0,0"></path></g><g id="29_joint" stroke="#0000ff" stroke-width="1" font-family="sans-serif" font-weight="normal"><path d="M768.38265,475.92899l0,0l0.05,0.57594l-13.01666,0l0,-0.57594l0,-2.22525l-12.81666,0l0,2.22525l0,0.57594l-13.01666,0l0,-0.57594l0,-2.22525l-12.81666,0l0,2.22525l0,0.57594l-13.01666,0l0,-0.57594l0,-2.22525l-12.81666,0l0,2.22525l-0.05,0l0,0"></path></g><g id="23_joint" stroke="#0000ff" stroke-width="1" font-family="sans-serif" font-weight="normal"><path d="M1140.88247,324.04863l0,0l-0.05,0l0,2.22525l-12.81666,0l0,-2.22525l0,-0.57594l-13.01666,0l0,0.57594l0,2.22525l-12.81666,0l0,-2.22525l0,-0.57594l-13.01666,0l0,0.57594l0,2.22525l-12.81666,0l0,-2.22525l0,-0.57594l-13.01666,0l0.05,0.57594l0,0"></path></g><g id="30_joint" stroke="#0000ff" stroke-width="1" font-family="sans-serif" font-weight="normal"><path d="M1140.88247,475.92899l0,0l0.05,0.57594l-13.01666,0l0,-0.57594l0,-2.22525l-12.81666,0l0,2.22525l0,0.57594l-13.01666,0l0,-0.57594l0,-2.22525l-12.81666,0l0,2.22525l0,0.57594l-13.01666,0l0,-0.57594l0,-2.22525l-12.81666,0l0,2.22525l-0.05,0l0,0"></path></g><g id="18_joint" stroke="#0000ff" stroke-width="1" font-family="sans-serif" font-weight="normal"><path d="M1140.88247,320.16807l0,0l0,-0.05l-2.9,0l0,-13.40001l2.9,0l0,-0.05l0,0l0,-13.50001l0,0l0,-0.05l-2.9,0l0,-13.40001l2.9,0l0,-0.05l0,0l0,-13.50001l0,0"></path></g><g id="1_joint" stroke="#0000ff" stroke-width="1" font-family="sans-serif" font-weight="normal"><path d="M1146.82819,215.55253l0,0l6.75005,-11.69133l0,0l0.025,-0.0433l2.51147,1.45001l6.70005,-11.60472l-2.51147,-1.45001l0.025,-0.0433l0,0l6.75005,-11.69133l0,0l0.025,-0.0433l2.51147,1.45001l6.70005,-11.60472l-2.51147,-1.45001l0.025,-0.0433l-0.00001,0.00002"></path></g><g id="17_joint" stroke="#0000ff" stroke-width="1" font-family="sans-serif" font-weight="normal"><path d="M690.88266,266.16803l0,0l0,0.05l2.9,0l0,13.40001l-2.9,0l0,0.05l0,0l0,13.50001l0,0l0,0.05l2.9,0l0,13.40001l-2.9,0l0,0.05l0,0l0,13.50001l0,0"></path></g><g id="7_joint" stroke="#0000ff" stroke-width="1" font-family="sans-serif" font-weight="normal"><path d="M1269.09426,457.55244l0,0l-6.74999,-11.69136l0,0l-0.025,-0.0433l2.51148,-1.45l-6.69999,-11.60476l-2.51148,1.45l-0.025,-0.0433l0,0l-6.74999,-11.69136l0,0l-0.025,-0.0433l2.51148,-1.45l-6.69999,-11.60476l-2.51148,1.45l-0.025,-0.0433l0.0001,0.00018"></path></g><g id="2_joint" stroke="#0000ff" stroke-width="1" font-family="sans-serif" font-weight="normal"><path d="M1211.8282,168.78725l0,0l-0.05,0l0,2.9l-18.89991,0l0,-2.9l-0.05,0l0,0l-18.99991,0l0,0"></path></g><g id="21_joint" stroke="#0000ff" stroke-width="1" font-family="sans-serif" font-weight="normal"><path d="M1140.88247,324.54852l0,0l0,18.99991l0,0l0,0.05l-2.9,0l0,18.89991l2.9,0l0,0.05l0,0.00035"></path></g><g id="20_joint" stroke="#0000ff" stroke-width="1" font-family="sans-serif" font-weight="normal"><path d="M690.88266,324.54852l0,0l0,0.05l2.9,0l0,18.90008l-2.9,0l0,0.05l0,0l0,19.00008l0,0"></path></g><g id="8_joint" stroke="#0000ff" stroke-width="1" font-family="sans-serif" font-weight="normal"><path d="M1307.09442,457.55244l0,0l-19.00008,0l0,0l-0.05,0l0,-2.9l-18.90008,0l0,2.9l-0.05,0l0,0"></path></g><g id="3_joint" stroke="#0000ff" stroke-width="1" font-family="sans-serif" font-weight="normal"><path d="M1240.29842,275.03898l0,0l-0.01294,-0.0483l-2.80118,0.75058l-2.82114,-10.52858l2.80118,-0.75058l-0.01294,-0.0483l0,0l-2.84702,-10.62517l0,0l-0.01294,-0.0483l-2.80118,0.75058l-2.82114,-10.52858l2.80118,-0.75058l-0.01294,-0.0483l0,0l-2.84702,-10.62517l0,0l-0.01294,-0.0483l-2.80118,0.75058l-2.82114,-10.52858l2.80118,-0.75058l-0.01294,-0.0483l0,0l-2.84702,-10.62517l0,0l-0.01294,-0.0483l-2.80118,0.75058l-2.82114,-10.52858l2.80118,-0.75058l-0.01294,-0.0483l0,0l-2.84702,-10.62517l0,0l-0.01294,-0.0483l-2.80118,0.75058l-2.82114,-10.52858l2.80118,-0.75058l-0.01294,-0.0483l0,0l-2.84702,-10.62517l0,0"></path></g><g id="28_joint" stroke="#0000ff" stroke-width="1" font-family="sans-serif" font-weight="normal"><path d="M1140.88247,365.929l0,0l0,10.99999l0,0l0,0.05l-2.9,0l0,10.89999l2.9,0l0,0.05l0,0l0,10.99999l0,0l0,0.05l-2.9,0l0,10.89999l2.9,0l0,0.05l0,0l0,10.99999l0,0l0,0.05l-2.9,0l0,10.89999l2.9,0l0,0.05l0,0l0,10.99999l0,0l0,0.05l-2.9,0l0,10.89999l2.9,0l0,0.05l0,0l0,10.99999l0,0l0,0.05l-2.9,0l0,10.89999l2.9,0l0,0.05l0,0.00007"></path></g><g id="27_joint" stroke="#0000ff" stroke-width="1" font-family="sans-serif" font-weight="normal"><path d="M690.88266,365.929l0,0l0,0.05l2.9,0l0,10.9l-2.9,0l0,0.05l0,0l0,11l0,0l0,0.05l2.9,0l0,10.9l-2.9,0l0,0.05l0,0l0,11l0,0l0,0.05l2.9,0l0,10.9l-2.9,0l0,0.05l0,0l0,11l0,0l0,0.05l2.9,0l0,10.9l-2.9,0l0,0.05l0,0l0,11l0,0l0,0.05l2.9,0l0,10.9l-2.9,0l0,0.05l0,0l0,11l0,0"></path></g><g id="9_joint" stroke="#0000ff" stroke-width="1" font-family="sans-serif" font-weight="normal"><path d="M1335.5643,351.30071l0,0l-2.84699,10.62519l0,0l-0.01294,0.0483l-2.80119,-0.75057l-2.82111,10.5286l2.80119,0.75057l-0.01294,0.0483l0,0l-2.84699,10.62519l0,0l-0.01294,0.0483l-2.80119,-0.75057l-2.82111,10.5286l2.80119,0.75057l-0.01294,0.0483l0,0l-2.84699,10.62519l0,0l-0.01294,0.0483l-2.80119,-0.75057l-2.82111,10.5286l2.80119,0.75057l-0.01294,0.0483l0,0l-2.84699,10.62519l0,0l-0.01294,0.0483l-2.80119,-0.75057l-2.82111,10.5286l2.80119,0.75057l-0.01294,0.0483l0,0l-2.84699,10.62519l0,0l-0.01294,0.0483l-2.80119,-0.75057l-2.82111,10.5286l2.80119,0.75057l-0.01294,0.0483l0.00004,-0.00015"></path></g></g></g></g></svg>