<svg version="1.1" xmlns="http://www.w3.org/2000/svg" xmlns:xlink="http://www.w3.org/1999/xlink" width="1156.1233121137736mm" height="600.2874194444444mm" viewBox="0 0 1156.1233121137736 600.2874194444444"><g transform=""><g fill="none" stroke="none" stroke-width="none" stroke-linecap="none" stroke-linejoin="miter" stroke-miterlimit="10" stroke-dasharray="" stroke-dashoffset="0" font-family="none" font-weight="none" font-size="12" text-anchor="start" mix-blend-mode="normal"><g stroke-opacity="0" stroke="#000000" stroke-width="1" stroke-linecap="butt" font-family="sans-serif" font-weight="normal"></g><g stroke-width="1" stroke-linecap="butt" font-family="sans-serif" font-weight="normal"></g><g stroke-width="1" stroke-linecap="butt" font-family="sans-serif" font-weight="normal"></g><g stroke-width="1" stroke-linecap="butt" font-family="sans-serif" font-weight="normal"></g><g stroke="#00aaff" stroke-width="2" stroke-linecap="butt" font-family="sans-serif" font-weight="normal"></g><g stroke-width="1" stroke-linecap="butt" font-family="sans-serif" font-weight="normal"></g><g id="shape" stroke-linecap="round"><path d="M942.50205,581.38382l-145.00013,0" id="joint" fill="none" stroke="#ff0000" stroke-width="1" font-family="Roboto, sans-serif" font-weight="400"></path><path d="M942.50205,581.38382l0,-270.00024" id="joint" fill="none" stroke="#ff0000" stroke-width="1" font-family="Roboto, sans-serif" font-weight="400"></path><path d="M797.50191,311.38359l145.00013,0" id="joint" fill="none" stroke="#ff0000" stroke-width="1" font-family="Roboto, sans-serif" font-weight="400"></path><path d="M797.50191,581.38382l0,-270.00024" id="joint" fill="none" stroke="#ff0000" stroke-width="1" font-family="Roboto, sans-serif" font-weight="400"></path><path d="M1120.45727,581.38382l-136.95997,0" id="joint" fill="none" stroke="#ff0000" stroke-width="1" font-family="Roboto, sans-serif" font-weight="400"></path><path d="M1120.45727,581.38382l0,-270.00024" id="joint" fill="none" stroke="#ff0000" stroke-width="1" font-family="Roboto, sans-serif" font-weight="400"></path><path d="M983.49729,311.38359l136.95997,0" id="joint" fill="none" stroke="#ff0000" stroke-width="1" font-family="Roboto, sans-serif" font-weight="400"></path><path d="M983.49729,581.38382l0,-270.00024" id="joint" fill="none" stroke="#ff0000" stroke-width="1" font-family="Roboto, sans-serif" font-weight="400"></path><path d="M794.58832,581.38382l-29.99987,0" id="joint" fill="none" stroke="#ff0000" stroke-width="1" font-family="Roboto, sans-serif" font-weight="400"></path><path d="M794.58832,581.38382l0,-270.00024" id="joint" fill="none" stroke="#ff0000" stroke-width="1" font-family="Roboto, sans-serif" font-weight="400"></path><path d="M764.58845,311.38359l29.99987,0" id="joint" fill="none" stroke="#ff0000" stroke-width="1" font-family="Roboto, sans-serif" font-weight="400"></path><path d="M764.58845,581.38382l0,-270.00024" id="joint" fill="none" stroke="#ff0000" stroke-width="1" font-family="Roboto, sans-serif" font-weight="400"></path><path d="M947.4561,581.38382l31.08713,0" id="joint" fill="none" stroke="#ff0000" stroke-width="1" font-family="Roboto, sans-serif" font-weight="400"></path><path d="M978.54323,581.38382l0,-269.99988" id="joint" fill="none" stroke="#ff0000" stroke-width="1" font-family="Roboto, sans-serif" font-weight="400"></path><path d="M947.4561,311.38394l31.08713,0" id="joint" fill="none" stroke="#ff0000" stroke-width="1" font-family="Roboto, sans-serif" font-weight="400"></path><path d="M947.4561,581.38382l0,-269.99988" id="joint" fill="none" stroke="#ff0000" stroke-width="1" font-family="Roboto, sans-serif" font-weight="400"></path><path d="M1155.41155,600.28742" id="68b8edfe-b48a-4e7c-b401-acd18b5713b9" fill="none" stroke="#000000" stroke-width="0.5" font-family="Roboto, sans-serif" font-weight="400"></path><path d="M1155.41155,600.28742l0,-136.95997" id="joint" fill="none" stroke="#ff0000" stroke-width="1" font-family="Roboto, sans-serif" font-weight="400"></path><path d="M1125.41133,455.18039l30.00022,8.14705" id="joint" fill="none" stroke="#ff0000" stroke-width="1" font-family="Roboto, sans-serif" font-weight="400"></path><path d="M1125.41168,455.23402l0,144.99978" id="joint" fill="none" stroke="#ff0000" stroke-width="1" font-family="Roboto, sans-serif" font-weight="400"></path><path d="M1125.41133,600.28742" id="260c581a-fa66-4522-ae34-9730604364f6" fill="none" stroke="#000000" stroke-width="0.5" font-family="Roboto, sans-serif" font-weight="400"></path><path d="M1125.41133,600.28742l30.00022,0" id="joint" fill="none" stroke="#ff0000" stroke-width="1" font-family="Roboto, sans-serif" font-weight="400"></path><path d="M1155.4112,452.8189" id="cfe3ba1e-8a49-4a31-a656-051fbb2500ce" fill="none" stroke="#000000" stroke-width="0.5" font-family="Roboto, sans-serif" font-weight="400"></path><path d="M1155.41155,452.76634l0,-145.00013" id="joint" fill="none" stroke="#ff0000" stroke-width="1" font-family="Roboto, sans-serif" font-weight="400"></path><path d="M1155.41155,307.71258l-30.00022,8.14705" id="joint" fill="none" stroke="#ff0000" stroke-width="1" font-family="Roboto, sans-serif" font-weight="400"></path><path d="M1125.41133,315.85963l0,136.95997" id="joint" fill="none" stroke="#ff0000" stroke-width="1" font-family="Roboto, sans-serif" font-weight="400"></path><path d="M1125.41133,452.8189" id="48f39b31-c52a-4dd2-8701-ab7541470b22" fill="none" stroke="#000000" stroke-width="0.5" font-family="Roboto, sans-serif" font-weight="400"></path><path d="M1125.41133,452.81996l30.00022,0" id="joint" fill="none" stroke="#ff0000" stroke-width="1" font-family="Roboto, sans-serif" font-weight="400"></path><path d="M834.55734,521.38408" fill="none" stroke="#000000" stroke-width="0.5" font-family="Roboto, sans-serif" font-weight="400"></path><path d="M919.55738,521.38373l-84.99969,0" fill="none" stroke="#000000" stroke-width="0.5" font-family="Roboto, sans-serif" font-weight="400"></path><path d="M919.55738,521.38408" fill="none" stroke="#000000" stroke-width="0.5" font-family="Roboto, sans-serif" font-weight="400"></path><path d="M919.55738,371.38368l0,150.00005" fill="none" stroke="#000000" stroke-width="0.5" font-family="Roboto, sans-serif" font-weight="400"></path><path d="M919.55738,371.38403" fill="none" stroke="#000000" stroke-width="0.5" font-family="Roboto, sans-serif" font-weight="400"></path><path d="M834.55769,371.38368l84.99969,0" fill="none" stroke="#000000" stroke-width="0.5" font-family="Roboto, sans-serif" font-weight="400"></path><path d="M834.55734,371.38403" fill="none" stroke="#000000" stroke-width="0.5" font-family="Roboto, sans-serif" font-weight="400"></path><path d="M834.55769,521.38373l0,-150.00005" fill="none" stroke="#000000" stroke-width="0.5" font-family="Roboto, sans-serif" font-weight="400"></path><g id="9_joint" stroke="#0000ff" stroke-width="1" font-family="sans-serif" font-weight="normal"><path d="M794.58832,581.38382l0,0l0,-0.05l-2.9,0l0,-10.28462l2.9,0l0,-0.05l0,0l0,-10.38462l0,0l0,-0.05l-2.9,0l0,-10.28462l2.9,0l0,-0.05l0,0l0,-10.38462l0,0l0,-0.05l-2.9,0l0,-10.28462l2.9,0l0,-0.05l0,0l0,-10.38462l0,0l0,-0.05l-2.9,0l0,-10.28462l2.9,0l0,-0.05l0,0l0,-10.38462l0,0l0,-0.05l-2.9,0l0,-10.28462l2.9,0l0,-0.05l0,0l0,-10.38462l0,0l0,-0.05l-2.9,0l0,-10.28462l2.9,0l0,-0.05l0,0l0,-10.38462l0,0l0,-0.05l-2.9,0l0,-10.28462l2.9,0l0,-0.05l0,0l0,-10.38462l0,0l0,-0.05l-2.9,0l0,-10.28462l2.9,0l0,-0.05l0,0l0,-10.38462l0,0l0,-0.05l-2.9,0l0,-10.28462l2.9,0l0,-0.05l0,0l0,-10.38462l0,0l0,-0.05l-2.9,0l0,-10.28462l2.9,0l0,-0.05l0,0l0,-10.38462l0,0l0,-0.05l-2.9,0l0,-10.28462l2.9,0l0,-0.05l0,0l0,-10.38462l0,0l0,-0.05l-2.9,0l0,-10.28462l2.9,0l0,-0.05l0,0l0,-10.38462l0,0l0,-0.05l-2.9,0l0,-10.28462l2.9,0l0,-0.05l0,0l0,-10.38462l0,0"></path></g><g id="3_joint" stroke="#0000ff" stroke-width="1" font-family="sans-serif" font-weight="normal"><path d="M797.50191,581.38382l0,0l0,-10.38462l0,0l0,-0.05l2.9,0l0,-10.28462l-2.9,0l0,-0.05l0,0l0,-10.38462l0,0l0,-0.05l2.9,0l0,-10.28462l-2.9,0l0,-0.05l0,0l0,-10.38462l0,0l0,-0.05l2.9,0l0,-10.28462l-2.9,0l0,-0.05l0,0l0,-10.38462l0,0l0,-0.05l2.9,0l0,-10.28462l-2.9,0l0,-0.05l0,0l0,-10.38462l0,0l0,-0.05l2.9,0l0,-10.28462l-2.9,0l0,-0.05l0,0l0,-10.38462l0,0l0,-0.05l2.9,0l0,-10.28462l-2.9,0l0,-0.05l0,0l0,-10.38462l0,0l0,-0.05l2.9,0l0,-10.28462l-2.9,0l0,-0.05l0,0l0,-10.38462l0,0l0,-0.05l2.9,0l0,-10.28462l-2.9,0l0,-0.05l0,0l0,-10.38462l0,0l0,-0.05l2.9,0l0,-10.28462l-2.9,0l0,-0.05l0,0l0,-10.38462l0,0l0,-0.05l2.9,0l0,-10.28462l-2.9,0l0,-0.05l0,0l0,-10.38462l0,0l0,-0.05l2.9,0l0,-10.28462l-2.9,0l0,-0.05l0,0l0,-10.38462l0,0l0,-0.05l2.9,0l0,-10.28462l-2.9,0l0,-0.05l0,0l0,-10.38462l0,0l0,-0.05l2.9,0l0,-10.28462l-2.9,0l0,-0.05l0,0"></path></g><g id="1_joint" stroke="#0000ff" stroke-width="1" font-family="sans-serif" font-weight="normal"><path d="M942.50205,581.38382l0,0l0,-0.05l-3.0023,0l0,-10.28462l3.0023,0l0,0l0,-10.48462l0,0l-3.0023,0l0,-10.28462l3.0023,0l0,0l0,-10.48462l0,0l-3.0023,0l0,-10.28462l3.0023,0l0,0l0,-10.48462l0,0l-3.0023,0l0,-10.28462l3.0023,0l0,0l0,-10.48462l0,0l-3.0023,0l0,-10.28462l3.0023,0l0,0l0,-10.48462l0,0l-3.0023,0l0,-10.28462l3.0023,0l0,0l0,-10.48462l0,0l-3.0023,0l0,-10.28462l3.0023,0l0,0l0,-10.48462l0,0l-3.0023,0l0,-10.28462l3.0023,0l0,0l0,-10.48462l0,0l-3.0023,0l0,-10.28462l3.0023,0l0,0l0,-10.48462l0,0l-3.0023,0l0,-10.28462l3.0023,0l0,0l0,-10.48462l0,0l-3.0023,0l0,-10.28462l3.0023,0l0,0l0,-10.48462l0,0l-3.0023,0l0,-10.28462l3.0023,0l0,0l0,-10.48462l0,0l-3.0023,0l0,-10.28462l3.0023,0l0,0l0,-10.48462l0,0.05l0,0"></path></g><g id="15_joint" stroke="#0000ff" stroke-width="1" font-family="sans-serif" font-weight="normal"><path d="M947.4561,581.38382l0,0l0,0.05l0,-10.48462l0,0l3.0023,0l0,-10.28462l-3.0023,0l0,0l0,-10.48462l0,0l3.0023,0l0,-10.28462l-3.0023,0l0,0l0,-10.48462l0,0l3.0023,0l0,-10.28462l-3.0023,0l0,0l0,-10.48462l0,0l3.0023,0l0,-10.28462l-3.0023,0l0,0l0,-10.48462l0,0l3.0023,0l0,-10.28462l-3.0023,0l0,0l0,-10.48462l0,0l3.0023,0l0,-10.28462l-3.0023,0l0,0l0,-10.48462l0,0l3.0023,0l0,-10.28462l-3.0023,0l0,0l0,-10.48462l0,0l3.0023,0l0,-10.28462l-3.0023,0l0,0l0,-10.48462l0,0l3.0023,0l0,-10.28462l-3.0023,0l0,0l0,-10.48462l0,0l3.0023,0l0,-10.28462l-3.0023,0l0,0l0,-10.48462l0,0l3.0023,0l0,-10.28462l-3.0023,0l0,0l0,-10.48462l0,0l3.0023,0l0,-10.28462l-3.0023,0l0,0l0,-10.48462l0,0l3.0023,0l0,-10.28462l-3.0023,0l0,-0.04965l0,0"></path></g><g id="13_joint" stroke="#0000ff" stroke-width="1" font-family="sans-serif" font-weight="normal"><path d="M978.54323,581.38382l0,0l0,-0.05l-2.22525,0l0,-10.28461l2.22525,0l0.57594,0l0,-10.48461l-0.57594,0l-2.22525,0l0,-10.28461l2.22525,0l0.57594,0l0,-10.48461l-0.57594,0l-2.22525,0l0,-10.28461l2.22525,0l0.57594,0l0,-10.48461l-0.57594,0l-2.22525,0l0,-10.28461l2.22525,0l0.57594,0l0,-10.48461l-0.57594,0l-2.22525,0l0,-10.28461l2.22525,0l0.57594,0l0,-10.48461l-0.57594,0l-2.22525,0l0,-10.28461l2.22525,0l0.57594,0l0,-10.48461l-0.57594,0l-2.22525,0l0,-10.28461l2.22525,0l0.57594,0l0,-10.48461l-0.57594,0l-2.22525,0l0,-10.28461l2.22525,0l0.57594,0l0,-10.48461l-0.57594,0l-2.22525,0l0,-10.28461l2.22525,0l0.57594,0l0,-10.48461l-0.57594,0l-2.22525,0l0,-10.28461l2.22525,0l0.57594,0l0,-10.48461l-0.57594,0l-2.22525,0l0,-10.28461l2.22525,0l0.57594,0l0,-10.48461l-0.57594,0l-2.22525,0l0,-10.28461l2.22525,0l0.57594,0l0,-10.48461l-0.57594,0l-2.22525,0l0,-10.28461l2.22525,0l0.57594,0l0,-10.48461l-0.57594,0.05l0,0"></path></g><g id="7_joint" stroke="#0000ff" stroke-width="1" font-family="sans-serif" font-weight="normal"><path d="M983.49729,581.38382l0,0l-0.57594,0.05l0,-10.48461l0.57594,0l2.22525,0l0,-10.28461l-2.22525,0l-0.57594,0l0,-10.48461l0.57594,0l2.22525,0l0,-10.28461l-2.22525,0l-0.57594,0l0,-10.48461l0.57594,0l2.22525,0l0,-10.28461l-2.22525,0l-0.57594,0l0,-10.48461l0.57594,0l2.22525,0l0,-10.28461l-2.22525,0l-0.57594,0l0,-10.48461l0.57594,0l2.22525,0l0,-10.28461l-2.22525,0l-0.57594,0l0,-10.48461l0.57594,0l2.22525,0l0,-10.28461l-2.22525,0l-0.57594,0l0,-10.48461l0.57594,0l2.22525,0l0,-10.28461l-2.22525,0l-0.57594,0l0,-10.48461l0.57594,0l2.22525,0l0,-10.28461l-2.22525,0l-0.57594,0l0,-10.48461l0.57594,0l2.22525,0l0,-10.28461l-2.22525,0l-0.57594,0l0,-10.48461l0.57594,0l2.22525,0l0,-10.28461l-2.22525,0l-0.57594,0l0,-10.48461l0.57594,0l2.22525,0l0,-10.28461l-2.22525,0l-0.57594,0l0,-10.48461l0.57594,0l2.22525,0l0,-10.28461l-2.22525,0l-0.57594,0l0,-10.48461l0.57594,0l2.22525,0l0,-10.28461l-2.22525,0l0,-0.05035l0,0"></path></g><g id="5_joint" stroke="#0000ff" stroke-width="1" font-family="sans-serif" font-weight="normal"><path d="M1120.45727,581.38382l0,0l0,-0.05l-2.9,0l0,-10.28462l2.9,0l0,-0.05l0,0l0,-10.38462l0,0l0,-0.05l-2.9,0l0,-10.28462l2.9,0l0,-0.05l0,0l0,-10.38462l0,0l0,-0.05l-2.9,0l0,-10.28462l2.9,0l0,-0.05l0,0l0,-10.38462l0,0l0,-0.05l-2.9,0l0,-10.28462l2.9,0l0,-0.05l0,0l0,-10.38462l0,0l0,-0.05l-2.9,0l0,-10.28462l2.9,0l0,-0.05l0,0l0,-10.38462l0,0l0,-0.05l-2.9,0l0,-10.28462l2.9,0l0,-0.05l0,0l0,-10.38462l0,0l0,-0.05l-2.9,0l0,-10.28462l2.9,0l0,-0.05l0,0l0,-10.38462l0,0l0,-0.05l-2.9,0l0,-10.28462l2.9,0l0,-0.05l0,0l0,-10.38462l0,0l0,-0.05l-2.9,0l0,-10.28462l2.9,0l0,-0.05l0,0l0,-10.38462l0,0l0,-0.05l-2.9,0l0,-10.28462l2.9,0l0,-0.05l0,0l0,-10.38462l0,0l0,-0.05l-2.9,0l0,-10.28462l2.9,0l0,-0.05l0,0l0,-10.38462l0,0l0,-0.05l-2.9,0l0,-10.28462l2.9,0l0,-0.05l0,0l0,-10.38462l0,0l0,-0.05l-2.9,0l0,-10.28462l2.9,0l0,-0.05l0,0l0,-10.38462l0,0"></path></g><g id="11_joint" stroke="#0000ff" stroke-width="1" font-family="sans-serif" font-weight="normal"><path d="M764.58845,581.38382l0,0l0,-10.38462l0,0l0,-0.05l2.9,0l0,-10.28462l-2.9,0l0,-0.05l0,0l0,-10.38462l0,0l0,-0.05l2.9,0l0,-10.28462l-2.9,0l0,-0.05l0,0l0,-10.38462l0,0l0,-0.05l2.9,0l0,-10.28462l-2.9,0l0,-0.05l0,0l0,-10.38462l0,0l0,-0.05l2.9,0l0,-10.28462l-2.9,0l0,-0.05l0,0l0,-10.38462l0,0l0,-0.05l2.9,0l0,-10.28462l-2.9,0l0,-0.05l0,0l0,-10.38462l0,0l0,-0.05l2.9,0l0,-10.28462l-2.9,0l0,-0.05l0,0l0,-10.38462l0,0l0,-0.05l2.9,0l0,-10.28462l-2.9,0l0,-0.05l0,0l0,-10.38462l0,0l0,-0.05l2.9,0l0,-10.28462l-2.9,0l0,-0.05l0,0l0,-10.38462l0,0l0,-0.05l2.9,0l0,-10.28462l-2.9,0l0,-0.05l0,0l0,-10.38462l0,0l0,-0.05l2.9,0l0,-10.28462l-2.9,0l0,-0.05l0,0l0,-10.38462l0,0l0,-0.05l2.9,0l0,-10.28462l-2.9,0l0,-0.05l0,0l0,-10.38462l0,0l0,-0.05l2.9,0l0,-10.28462l-2.9,0l0,-0.05l0,0l0,-10.38462l0,0l0,-0.05l2.9,0l0,-10.28462l-2.9,0l0,-0.05l0,0"></path></g><g id="19_joint" stroke="#0000ff" stroke-width="1" font-family="sans-serif" font-weight="normal"><path d="M1125.41168,455.23402l0,0l0,0.05l2.9,0l0,10.25713l-2.9,0l0,0.05l0,0l0,10.35713l0,0l0,0.05l2.9,0l0,10.25713l-2.9,0l0,0.05l0,0l0,10.35713l0,0l0,0.05l2.9,0l0,10.25713l-2.9,0l0,0.05l0,0l0,10.35713l0,0l0,0.05l2.9,0l0,10.25713l-2.9,0l0,0.05l0,0l0,10.35713l0,0l0,0.05l2.9,0l0,10.25713l-2.9,0l0,0.05l0,0l0,10.35713l0,0l0,0.05l2.9,0l0,10.25713l-2.9,0l0,0.05l0,0l0,10.35713l0,0l0,0.05l2.9,0l0,10.25713l-2.9,0l0,0.05l0,0l0,10.35713l0,0"></path></g><g id="0_joint" stroke="#0000ff" stroke-width="1" font-family="sans-serif" font-weight="normal"><path d="M942.50205,581.38382l0,0l-10.35713,0l0,0l-0.05,0l0,-2.9l-10.25713,0l0,2.9l-0.05,0l0,0l-10.35713,0l0,0l-0.05,0l0,-2.9l-10.25713,0l0,2.9l-0.05,0l0,0l-10.35713,0l0,0l-0.05,0l0,-2.9l-10.25713,0l0,2.9l-0.05,0l0,0l-10.35713,0l0,0l-0.05,0l0,-2.9l-10.25713,0l0,2.9l-0.05,0l0,0l-10.35713,0l0,0l-0.05,0l0,-2.9l-10.25713,0l0,2.9l-0.05,0l0,0l-10.35713,0l0,0l-0.05,0l0,-2.9l-10.25713,0l0,2.9l-0.05,0l0,0l-10.35713,0l0,0l-0.05,0l0,-2.9l-10.25713,0l0,2.9l-0.05,0l-0.00035,0"></path></g><g id="12_joint" stroke="#0000ff" stroke-width="1" font-family="sans-serif" font-weight="normal"><path d="M947.4561,581.38382l0,0l0.05,0l0,-2.9l15.44357,0l0,2.9l0.05,0l0,0l15.54357,0l0,0"></path></g><g id="18_joint" stroke="#0000ff" stroke-width="1" font-family="sans-serif" font-weight="normal"><path d="M1125.41133,455.18039l0,0l15.00028,4.07357l0,0l0.04825,0.0131l-0.76002,2.79864l14.90378,4.04736l0.76002,-2.79864l0.04825,0.0131l-0.00034,-0.00009"></path></g><g id="17_joint" stroke="#0000ff" stroke-width="1" font-family="sans-serif" font-weight="normal"><path d="M1155.41155,600.28742l0,0l0,-0.05l-2.9,0l0,-11.31333l2.9,0l0,-0.05l0,0l0,-11.41333l0,0l0,-0.05l-2.9,0l0,-11.31333l2.9,0l0,-0.05l0,0l0,-11.41333l0,0l0,-0.05l-2.9,0l0,-11.31333l2.9,0l0,-0.05l0,0l0,-11.41333l0,0l0,-0.05l-2.9,0l0,-11.31333l2.9,0l0,-0.05l0,0l0,-11.41333l0,0l0,-0.05l-2.9,0l0,-11.31333l2.9,0l0,-0.05l0,0l0,-11.41333l0,0l0,-0.05l-2.9,0l0,-11.31333l2.9,0l0,-0.05l0,0l0,-11.41333l0,0"></path></g><g id="4_joint" stroke="#0000ff" stroke-width="1" font-family="sans-serif" font-weight="normal"><path d="M1120.45727,581.38382l0,0l-11.41333,0l0,0l-0.05,0l0,-2.9l-11.31333,0l0,2.9l-0.05,0l0,0l-11.41333,0l0,0l-0.05,0l0,-2.9l-11.31333,0l0,2.9l-0.05,0l0,0l-11.41333,0l0,0l-0.05,0l0,-2.9l-11.31333,0l0,2.9l-0.05,0l0,0l-11.41333,0l0,0l-0.05,0l0,-2.9l-11.31333,0l0,2.9l-0.05,0l0,0l-11.41333,0l0,0l-0.05,0l0,-2.9l-11.31333,0l0,2.9l-0.05,0l0,0l-11.41333,0l0,0l-0.05,0l0,-2.9l-11.31333,0l0,2.9l-0.05,0l0,0"></path></g><g id="21_joint" stroke="#0000ff" stroke-width="1" font-family="sans-serif" font-weight="normal"><path d="M1125.41133,600.28742l0,0l0.05,0l0,-2.9l14.90011,0l0,2.9l0.05,0l0,0l15.00011,0l0,0"></path></g><g id="8_joint" stroke="#0000ff" stroke-width="1" font-family="sans-serif" font-weight="normal"><path d="M794.58832,581.38382l0,0l-15.00011,0l0,0l-0.05,0l0,-2.9l-14.90011,0l0,2.9l-0.05,0l0.00035,0"></path></g><g id="23_joint" stroke="#0000ff" stroke-width="1" font-family="sans-serif" font-weight="normal"><path d="M1155.41155,452.76634l0,0l0,-0.05l-2.9,0l0,-10.25715l2.9,0l0,-0.05l0,0l0,-10.35715l0,0l0,-0.05l-2.9,0l0,-10.25715l2.9,0l0,-0.05l0,0l0,-10.35715l0,0l0,-0.05l-2.9,0l0,-10.25715l2.9,0l0,-0.05l0,0l0,-10.35715l0,0l0,-0.05l-2.9,0l0,-10.25715l2.9,0l0,-0.05l0,0l0,-10.35715l0,0l0,-0.05l-2.9,0l0,-10.25715l2.9,0l0,-0.05l0,0l0,-10.35715l0,0l0,-0.05l-2.9,0l0,-10.25715l2.9,0l0,-0.05l0,0l0,-10.35715l0,0l0,-0.05l-2.9,0l0,-10.25715l2.9,0l0,-0.05l0,0l0,-10.35715l0,0"></path></g><g id="2_joint" stroke="#0000ff" stroke-width="1" font-family="sans-serif" font-weight="normal"><path d="M797.50191,311.38359l0,0l10.35715,0l0,0l0.05,0l0,2.9l10.25715,0l0,-2.9l0.05,0l0,0l10.35715,0l0,0l0.05,0l0,2.9l10.25715,0l0,-2.9l0.05,0l0,0l10.35715,0l0,0l0.05,0l0,2.9l10.25715,0l0,-2.9l0.05,0l0,0l10.35715,0l0,0l0.05,0l0,2.9l10.25715,0l0,-2.9l0.05,0l0,0l10.35715,0l0,0l0.05,0l0,2.9l10.25715,0l0,-2.9l0.05,0l0,0l10.35715,0l0,0l0.05,0l0,2.9l10.25715,0l0,-2.9l0.05,0l0,0l10.35715,0l0,0l0.05,0l0,2.9l10.25715,0l0,-2.9l0.05,0l0,0"></path></g><g id="24_joint" stroke="#0000ff" stroke-width="1" font-family="sans-serif" font-weight="normal"><path d="M1155.41155,307.71258l0,0l-0.04825,0.0131l0.76002,2.79864l-14.90361,4.04732l-0.76002,-2.79864l-0.04825,0.0131l0,0l-15.00011,4.07352l0,0"></path></g><g id="14_joint" stroke="#0000ff" stroke-width="1" font-family="sans-serif" font-weight="normal"><path d="M947.4561,311.38394l0,0l15.54339,0l0,0l0.05,0l0,2.9l15.44339,0l0,-2.9l0.05,0l0.00035,0"></path></g><g id="25_joint" stroke="#0000ff" stroke-width="1" font-family="sans-serif" font-weight="normal"><path d="M1125.41133,315.85963l0,0l0,0.05l2.9,0l0,11.31333l-2.9,0l0,0.05l0,0l0,11.41333l0,0l0,0.05l2.9,0l0,11.31333l-2.9,0l0,0.05l0,0l0,11.41333l0,0l0,0.05l2.9,0l0,11.31333l-2.9,0l0,0.05l0,0l0,11.41333l0,0l0,0.05l2.9,0l0,11.31333l-2.9,0l0,0.05l0,0l0,11.41333l0,0l0,0.05l2.9,0l0,11.31333l-2.9,0l0,0.05l0,0l0,11.41333l0,0l0,0.05l2.9,0l0,11.31333l-2.9,0l0,0.05l0,0l0,11.41333l0,0"></path></g><g id="6_joint" stroke="#0000ff" stroke-width="1" font-family="sans-serif" font-weight="normal"><path d="M983.49729,311.38359l0,0l11.41333,0l0,0l0.05,0l0,2.9l11.31333,0l0,-2.9l0.05,0l0,0l11.41333,0l0,0l0.05,0l0,2.9l11.31333,0l0,-2.9l0.05,0l0,0l11.41333,0l0,0l0.05,0l0,2.9l11.31333,0l0,-2.9l0.05,0l0,0l11.41333,0l0,0l0.05,0l0,2.9l11.31333,0l0,-2.9l0.05,0l0,0l11.41333,0l0,0l0.05,0l0,2.9l11.31333,0l0,-2.9l0.05,0l0,0l11.41333,0l0,0l0.05,0l0,2.9l11.31333,0l0,-2.9l0.05,0l0,0"></path></g><g id="27_joint" stroke="#0000ff" stroke-width="1" font-family="sans-serif" font-weight="normal"><path d="M1125.41133,452.81996l0,0l0.05,0l0,-2.9l14.90011,0l0,2.9l0.05,0l0,0l15.00011,0l0,0"></path></g><g id="10_joint" stroke="#0000ff" stroke-width="1" font-family="sans-serif" font-weight="normal"><path d="M764.58845,311.38359l0,0l15.00011,0l0,0l0.05,0l0,2.9l14.90011,0l0,-2.9l0.05,0l-0.00035,0"></path></g></g></g></g></svg>